<?xml version="1.0" encoding="utf-8"?>
<!-- Generator: Adobe Illustrator 21.1.0, SVG Export Plug-In . SVG Version: 6.00 Build 0)  -->
<svg version="1.1" id="Capa_1" xmlns="http://www.w3.org/2000/svg" xmlns:xlink="http://www.w3.org/1999/xlink" x="0px" y="0px"
	 viewBox="0 0 342.1 150.9" style="enable-background:new 0 0 342.1 150.9;" xml:space="preserve">
<style type="text/css">
	.st0{fill:#BE152B;}
</style>
<g>
	<g>
		<g>
			<path d="M132.3,137.6c1.9-0.7,3.7-2.1,4.7-3.8h0.1v12.3c0,1.2-0.1,2.2,1.1,3v0.1h-4.6v-0.1c1.3-0.7,1.3-1.7,1.3-3v-8.4
				L132.3,137.6L132.3,137.6L132.3,137.6z"/>
			<path d="M149.9,137.4L149.9,137.4c-0.9-0.9-2.4-0.9-3.5-0.9l-2.4,0.1l-0.2,3.6c0.7-0.2,1.4-0.3,2.1-0.3c2.9,0,5.3,1.6,5.3,4.7
				c0,2.9-2.8,4.9-6.5,4.9c-0.9,0-1.9-0.1-2.8-0.3l-1-2.2c1.2,0.6,2.5,0.9,3.8,0.9c2,0,4-0.9,4-3.2c0-2.1-2-3-3.8-3
				c-1.1,0-2.4,0.3-3.3,0.7l0.5-7.6h7.9L149.9,137.4L149.9,137.4z"/>
			<path d="M153.2,142c0-4,2-7.6,5.8-7.6c4,0,5.8,3.9,5.8,7.4c0,3.6-1.7,7.6-5.8,7.6C155.5,149.5,153.2,146,153.2,142z M155.5,141.8
				c0,2.2,0.7,6,3.5,6c2.2,0,3.4-2.7,3.4-5.7c0-3.1-1.3-5.9-3.5-5.9C156.2,136.1,155.5,139.7,155.5,141.8z"/>
			<path d="M176.1,137.4L176.1,137.4c-0.9-0.9-2.4-0.9-3.5-0.9l-2.4,0.1l-0.2,3.6c0.7-0.2,1.4-0.3,2.1-0.3c2.9,0,5.3,1.6,5.3,4.7
				c0,2.9-2.8,4.9-6.5,4.9c-0.9,0-1.9-0.1-2.8-0.3l-1-2.2c1.2,0.6,2.5,0.9,3.8,0.9c2,0,4-0.9,4-3.2c0-2.1-2-3-3.8-3
				c-1.1,0-2.4,0.3-3.3,0.7l0.5-7.6h7.9L176.1,137.4L176.1,137.4z"/>
		</g>
	</g>
	<path class="st0" d="M181.1,100.8l11.6,0.1v3.8c0,0-1-1.4-2.4-1.4c-1.4,0-5,0.2-5,0.2v6.1h5l0.5-0.1v3.4l-1-0.8l-4.4,0v7.6
		c0,0,1.6,0.8,4.3,0.8c2.7,0,6-1.8,6-1.8l-0.3,0.6l-1.2,3.5h-13.8c0,0,1.5-1,1.5-2.1c0-1.2,0-17.6,0-17.6s0.1-1.8-1.2-1.8
		C180.9,100.8,181.1,100.8,181.1,100.8z"/>
	<path class="st0" d="M151.7,110.8c0-6.1-4.9-8.9-7.7-9.6c-2.4-0.6-5.4-0.5-6.9-0.5l-4.4,0c0,0-0.2,0-0.5,0.4c0.4,0,0.6,0.1,0.8,0.4
		c0.1,0.1,0.1,0.2,0.2,0.3c0.1,0.2,0.1,0.5,0.2,0.7V120c-0.1,1-1.4,1.9-1.4,1.9h8.9C140.9,121.9,151.7,122.4,151.7,110.8z
		 M141.9,119.3h-4c-0.7-0.2-1-0.4-1-0.4v-7.3h4.8l0.5,0.2v-2.9l-0.5,0.3h-4.8v-5.9c0,0,5.1-0.3,7.2,0.6c2.1,0.9,4.4,3,4.4,7.2
		C148.4,118.2,141.9,119.3,141.9,119.3z"/>
	<path class="st0" d="M278.1,122.9c0,0,2.1,0,6.6,0c-1.3-0.2-2.4-2.6-2.4-2.6l-7.7-19c0,0-3.7,0-5,0c1.3,0.5,0.3,3.1,0.3,3.1
		s-5,12.2-6,14.9c-1,2.7-2.6,3.5-2.6,3.5l-0.1,0.1h5.9c0,0-0.4-0.3-0.8-0.8c-0.5-0.7-0.1-2-0.1-2l2.1-5.3h8.4c0,0,1.7,4.8,2.3,6.3
		C279.6,122.5,278.1,122.9,278.1,122.9z M268.9,112.7l3.5-8.6l3.2,8.6H268.9z"/>
	<path class="st0" d="M195.5,100.8l4.6,0v1.4l5.6,14.9l0.4,1.3l0.4-0.3l5.2-13.9c0,0,0.6-1.8,0.1-2.5c-0.6-0.7-0.6-0.8-0.6-0.8h4.5
		l-0.3,1.3l-8.3,21.3c0,0-2.9-0.7-4.2-4.4c-1.2-3.4-5.7-15.2-5.7-15.2s-0.6-1.2-1.1-2.1C195.9,101.3,195.5,101.3,195.5,100.8z"/>
	<path class="st0" d="M217.8,100.8h5.8l0.3,0.3c0,0-1.2,0.9-1.2,1.7c0,0.7,0,18.2,0,18.2s0.3,1.1,0.7,1.2c0.4,0.2,0.6,0.5,0.6,0.5
		H218v-0.4c0,0,1.2-0.5,1.2-1.5c0-1-0.2-17.8-0.2-18.2c0-1-1.1-1.3-1.1-1.3L217.8,100.8z"/>
	<path class="st0" d="M236.8,120.4c-2.2,0-3.6-0.2-4.1-0.4c0-3.9,0-16.7,0-17.3c0-0.8,1.2-1.7,1.2-1.7l0-0.2h-6.3v0.2
		c0,0,0.9,0.3,1.2,0.9c0.1,0.2,0.1,0.4,0.2,0.6c0,0.1,0,1.5,0,3.5c0,4.8,0,13.7,0,14.6c0,1.4-1.5,2.1-1.5,2.1h13.8l1.2-3.5l0.3-0.6
		C242.9,118.6,240.1,120.4,236.8,120.4z"/>
	<path class="st0" d="M254.3,120.4c-2.2,0-3.6-0.2-4.1-0.4c0-3.9,0-16.7,0-17.3c0-0.8,1.3-1.7,1.3-1.7l0-0.2h-6.3v0.2
		c0,0,0.9,0.3,1.2,0.9c0.1,0.2,0.1,0.4,0.2,0.6c0,0.1,0,1.5,0,3.5c0,4.8,0,13.7,0,14.6c0,1.4-1.5,2.1-1.5,2.1h13.8l1.2-3.5l0.3-0.6
		C260.3,118.6,257.6,120.4,254.3,120.4z"/>
	<g>
		<path class="st0" d="M175.6,102.4v-4c0,0-3-0.9-5.4-0.9c-2.4,0-9.3,0.4-9.3,7c0,6.8,12.8,6,12.8,12.2c0,1.9-2.8,3.6-5.6,3.6
			c-3.9,0-7.8-2.9-7.8-2.9l0.9,4.4c0,0,3,1.2,6.2,1.2c3.3,0,10.2-1.8,10.2-7.5c0-7.6-12.8-6.7-12.8-11.9c0-2.2,1.8-3.4,4.6-3.4
			C172.9,100.2,175.6,102.4,175.6,102.4z"/>
	</g>
	<path class="st0" d="M132,64.7h6.5v0.3c0,0-1.4,0.1-1.4,2c0,1.9,0,15.3,0,15.3s0.4,4.5,5.5,4.5c6.2,0,6.7-3.8,6.7-3.8l0-15.6
		c0,0-0.2-2.5-1.4-2.5c0-0.2,0.1-0.1,0.1-0.1h6.4v0.2c0,0-1.3,0.2-1.3,1.6c0,1.4,0,19.4,0,20.1c0,0.7,0.1,1.5,0.8,2
		c0.7,0.5,0.6,0.6,0.6,0.6h-5.2v-2.3h-0.5c0,0-2.1,2.8-6.7,2.8c-5.3,0-8.7-3-8.7-7.4c0-2.3,0-15.4,0-15.4S133,65,132,64.7z"/>
	<path class="st0" d="M157.9,67.7v-0.2h4.5l12.9,16.6V69.5c0,0-0.5-1.7-1.3-1.8c0-0.3,0-0.3,0-0.3h5.4v0.3c0,0-1.4,0.4-1.4,2.2
		c0,1.8-0.2,20.3-0.2,20.3h-0.5c0,0-1.8-0.7-6.1-6S162,72.4,162,72.4l-0.2-0.1v14.9c0,0,0.7,1.8,1.5,1.8c0,0.3,0,0.3,0,0.3h-5.8
		v-0.4c0,0,1.4-1,1.4-1.8c0-0.8,0.2-17.1,0.2-17.1S159,68.1,157.9,67.7z"/>
	<path class="st0" d="M182.8,67.4l5.7,0.1v0.2c0,0-1.1,0.3-1.1,1.3c0,1.4,0,18.2,0,18.2s0.1,1.3,1.1,1.7c0,0.3,0,0.3,0,0.3h-5.7
		l0-0.4c0,0,1.2-0.4,1.2-1.8c0-1.1,0-18,0-18s-0.4-1-1.2-1.4C182.8,67.5,182.8,67.4,182.8,67.4z"/>
	<path class="st0" d="M268.7,67.4l5.7,0.1v0.2c0,0-1.1,0.3-1.1,1.3c0,1.4,0,18.2,0,18.2s0.1,1.3,1.1,1.7c0,0.3,0,0.4,0,0.4h-5.7
		l0-0.4c0,0,1.2-0.4,1.2-1.8c0-1.1,0-18,0-18s-0.4-1-1.2-1.4C268.7,67.5,268.7,67.4,268.7,67.4z"/>
	<path class="st0" d="M190.5,67.4h4.6c0,0,0,0.7,0.1,1.3c0.2,0.6,6.1,16.3,6.1,16.3l5.6-14.6c0,0,0-1.9-0.5-2.3
		c-0.5-0.4-0.6-0.7-0.6-0.7h4.9l-9,23c0,0-2.4-0.8-3.6-3.8c-1-2.4-6.5-17.2-6.5-17.2l-1.2-1.6L190.5,67.4z"/>
	<path class="st0" d="M213.2,67.5l11.6,0.1v3.8c0,0-1-1.5-2.4-1.5c-1.4,0-5,0-5,0v6.4h5l0.5-0.1v3.4l-1-0.8h-4.4l0,7.6
		c0,0,1.6,0.8,4.3,0.8c2.7,0,6.1-1.8,6.1-1.8l-1.5,4.1h-13.8c0,0,1.5-1,1.5-2.1c0-1.2,0-17.6,0-17.6s0.1-1.8-1.2-1.8
		C213,67.5,213.2,67.5,213.2,67.5z"/>
	<path class="st0" d="M230.2,67.7c0,0,6-0.2,7.5-0.2c1.5,0,6.8,1,6.8,5.7c0,3.7-5,5.3-5,5.3l-0.2,0.4c0,0,4.3,6,6.4,7.7
		c2.1,1.8,3.6,2.7,3.6,2.7h-4.3c0,0-1.1,0.1-5.1-4.5c-4-4.7-4.6-6.8-4.6-6.8s5.5-0.7,5.5-4.7c0-2.8-2.7-3.7-2.7-3.7
		s-3.6-0.6-3.6,0.2c0,1,0,17.9,0,17.9s0.7,1.6,1.3,1.6c-1,0-6.1,0-6.1,0s1.3-0.3,1.3-3.8c0-3.5,0-16,0-16S230.7,68,230.2,67.7z"/>
	<path class="st0" d="M285.8,67.8c-2,0-8.2,0-8.2,0l1.2,1.3l0,18.7l-1.2,1.7c0,0,6.1,0,7.8,0c5.3,0,12.3-2.3,12.3-11.4
		C297.7,68.6,288.4,67.8,285.8,67.8z M286.8,86.9h-4.5l0-16.5c0,0,12-2.4,12,8.1C294.3,86.8,286.8,86.9,286.8,86.9z"/>
	<path class="st0" d="M314.2,89.5c0,0,2.1,0,6.6,0c-1.3-0.2-2.4-2.6-2.4-2.6l-7.7-19c0,0-3.7,0-5,0c1.3,0.5,0.3,3.1,0.3,3.1
		s-5,12.2-6,14.9c-1,2.7-2.6,3.5-2.6,3.5l-0.1,0.1h5.9c0,0-0.4-0.3-0.8-0.8c-0.5-0.7-0.1-2-0.1-2l2.1-5.3h8.4c0,0,1.7,4.8,2.3,6.3
		C315.6,89,314.2,89.5,314.2,89.5z M304.9,79.3l3.5-8.6l3.2,8.6L304.9,79.3z"/>
	<g>
		<path class="st0" d="M263.6,71.3v-3.6c0,0-2.7-0.8-4.8-0.8c-2.2,0-8.4,0.4-8.4,6.3c0,6.1,11.6,5.4,11.6,11c0,1.7-2.5,3.3-5,3.3
			c-3.5,0-7-2.6-7-2.6l0.8,3.9c0,0,2.7,1.1,5.6,1.1c4.2,0,9.2-1.7,9.2-6.8c0-6.9-11.5-6-11.5-10.7c0-2,1.6-3.1,4.2-3.1
			C261.2,69.3,263.6,71.3,263.6,71.3z"/>
	</g>
	<path class="st0" d="M330.3,67.8c-2,0-8.2,0-8.2,0l1.2,1.3v18.7l-1.2,1.7c0,0,6.1,0,7.8,0c5.3,0,12.3-2.3,12.3-11.4
		C342.1,68.6,332.9,67.8,330.3,67.8z M331.2,86.9h-4.5l0-16.5c0,0,12-2.4,12,8.1C338.7,86.8,331.2,86.9,331.2,86.9z"/>
	<g>
		<path d="M97.4,119.3c0.1,0,0.4-0.1,0.8-0.3C98,119.1,97.7,119.2,97.4,119.3C97.4,119.3,97.4,119.3,97.4,119.3z"/>
		<path d="M95.1,101.3c-8.2-2.9-14.2-6.5-14.2-16.5c0.4-3.7,1.6-6.4,2.2-7.2c0.4-0.4-0.8,0-1.9,1.3c0.1-0.3,0.2-0.7,0.5-1
			c2.2-2.4,3.4-3.8,3.4-4.3c0.6-0.9,0.2-0.7-0.7-0.2c-1.4,1.1-1.1,0.7-2,2.1c-0.2,0.3-0.5-0.1-0.7,0.2c-1.7,1.2-2.4,4.5-1.6,5.2
			c-0.3,0.6-0.4,1.2-0.6,2c-0.3,1.7-0.4,3.2-0.6,4.2c-0.6-3.6-1.2-7.2-1.6-9.9c0-0.2-0.2-0.9-0.3-1.1c-0.1-0.5,0-1-0.2-1.5
			c0-0.1-0.3-0.6-0.2-1.1c0.3-1.7-0.2-2.8-0.4-4c0-0.2-0.3-0.2-0.3,0.2c-0.1,0.6-0.1,1.8-0.3,2.1c-0.1,0.1-0.4-1.8-0.5-2.1
			c-0.1-0.1-0.1-0.3-0.2-0.5c0-0.1-0.1-0.3-0.2-0.4c-0.1-0.1-0.1-0.2-0.2-0.3c0-0.1,0-0.3-0.1-0.4c-0.1-0.2-0.2-0.3-0.3-0.5
			c-0.4-1-0.8-2-1-1.8c-0.2,0.2,0.3,2.2,0.6,2.8c0.6,1.3,1.2,3.2,1.7,5.5c0.1,0.3,0.3,1.3,0.3,1.5c0.1,0.3,0.1,0.7,0.2,1
			c0.1,0.3,0.1,0.8,0.1,1c0.1,0.7,0.1,1,0.2,1.3c0.1,0.4,0.1,0.9,0.3,1.4c0.3,0.7,0.3,2.1,0,1.6c-0.1-0.2-1.3-1.7-1.6-1.9
			c-0.1-0.1-0.3-0.2-0.4-0.3c-1.2-0.8-2.5-2-2.5-1.1c1.9,1,3.9,4.5,4.6,6.6c0,1.2,0,2.2,0.1,2.9c0.1,0.6-0.4,0.9-0.3,1.2
			c0.1,0.3,0.7,0.9,0.9,1.1c0.3,0.6,0.9,1,1.7,1.8c0.2,0.5,0.3,0.8,0.4,0.8c0,2.1,13,7.1,4.9,6.2c-1.7-0.8-4.3-2.4-5.1-2.4
			c0,1.7,6.3,5,10.3,6.1c0.6-0.7-4.1-1.9-3-1.9C87.6,101.2,95.1,102.1,95.1,101.3z"/>
		<path d="M74.5,28.2c0.1,0.3,0.3,0.5,0.4,0.7C76.7,28.6,74.5,27.1,74.5,28.2z"/>
		<path d="M76.4,26.8c0.1,0.1,0.2,0,0.3-0.1c0,0,0.1,0,0.1,0c0.1,0,0.1,0,0.2,0c1.7-1-1.7-1.3-0.7-0.1
			C76.3,26.7,76.3,26.7,76.4,26.8z"/>
		<path d="M61.4,84.5c0.4-0.3,0.4-0.2,0.6-0.6c0.2-0.4,0.3-0.5-0.1-1c-1.1-1.1-2.2-2.3-4.6-7.7c-0.8-1.7-1.1,2.9-0.5,5.9
			c0.9,4.5,1.3,5.3,2.1,6.2c1.4,1.6,3.7,4.4,3.7,4.4s1.4,1.6,1-0.2c-0.4-1.8-1.8-3.2-3.1-4c-1.2-0.9-0.7-1.8-0.7-1.8
			S60.4,85.2,61.4,84.5z"/>
		<path d="M63.3,96.2c-0.1-0.8-0.7-2.9-1.2-3.5c-0.5-0.6-4.5-4.8-5-5.4c-0.5-0.6,0.7,3.4,0.7,3.4s0,0,0.1,0.1
			c-0.2,0.2-0.1,1-0.2,1.1c0.6,1.5,3.9,2.6,4.9,4.1C63,96.4,63.3,96.4,63.3,96.2z"/>
		<path d="M62,96.7C61.2,96,59.7,95,59,95c-0.7,0-1.7,0.6-1.7,0.6s-0.6,3.1-0.6,4.1c0,1-0.1,3.2,0.7,2.4c0.8-0.7,1.2,0.6,1.8,0.6
			c0.7,0,0,1.3,2.1-1c1.3-1.4,1.6-2.8,1.6-2.8S63.3,97.8,62,96.7z"/>
		<path d="M55,104.9c-2.3,0.8-2.4,0.9-4,1.1c-2.9,0.4-2-4.6-3.4-2.9s-2.2,2.8-2.2,5.1c0,1.3-1.4,1.7,0.3,2.9
			c1.7,1.2,2.3-0.1,4.7-0.2c2.4-0.1,1.8-0.7,3.9-1.2c2.1-0.4,3.4-1.4,3.9-3.7c0.5-2.4,1.6-2.1-0.2-2.6C56.3,103,57.1,104.2,55,104.9
			z"/>
		<path d="M101.6,101.5c0.8,0.5,1.7,1,2.8,1.5c0.4,0.2,2.2,1.6,0.8,0c-1.4-1.5-7.7-4.5-9.1-8.4c-0.2-0.7-1.6-1.6-1.6-1.6
			c0.1-0.9-0.3-0.9-0.2-1.6l-0.1-0.4c0,0,0,0,0.1-1.2c0.2-2.1,3.7-6.4,4.2-8c0.1-0.2,0.3-0.7-0.8-0.8c-3.3-0.3-5-2.5-5.9-3.2
			c-0.2-0.1-0.3,0.1-0.3,0.3c0,1.2,0,3,0,4.1c-0.1-0.1-0.3-0.1-0.4-0.1c-0.7-0.2-2.9-0.2-4-0.2c-0.9,0-2.4,0.5-3,0.9
			c-0.6,0.4-3,1.4,0.8,0.5c0.7-0.2,1.7-0.4,2.7-0.4c0.7,0,1.8,0.4,2.3,0.5c0.7,0.2,1.3,0.4,1.8,0.6c0.3,1.3,0.9,2.7,1.2,4.3
			c0.5,2.1,0.5,4.1,0.5,4.1s1.5,2.8,2.4,4.6c0.4,0.9,1.2,1.6,2.5,2.5c0,0.1-0.1,0.1-0.1,0.2c0,0.3-0.3-0.3-1.3-0.4
			c-0.5-0.1-1-0.1-1.3-0.2c-0.4-0.1-0.5-0.1-0.9-0.3c-0.8-0.4-1.3-0.6-2.2-0.9c-1.9-1.1-3-1-3.8-1.7c-1.4-1.1-3-2.7-3.4-2.2
			c0,0.3,0.3,0.7,0.8,1.1c0.1,0.1,0.2,0.1,0.4,0.3c0.1,0.1,0.2,0.4,0.4,0.5c0.2,0.2,0.6,0.2,0.8,0.5c0.2,0.2,0.4,0.2,0.6,0.4
			c0.1,0.1,0.2,0.3,0.3,0.4c0.5,0.4,1,0.7,1.5,1c0,0.1,0.6,0.5,0.8,0.5c0,0.1,0.2,0.3,0.5,0.4c0.3,0.3,1,0.5,1.5,0.7
			c0.1,0.2,0.7,0.3,0.9,0.4c0.4,0.3,1.3,0.3,1.7,0.4c1.8,0.9,2.9,1.1,3.7,1.2C100,102,101.8,102.1,101.6,101.5
			C101.6,101.5,101.6,101.5,101.6,101.5z"/>
		<path d="M89.2,69.3c0,1,0.2,2.1,0.7,2.7c0-0.1-0.1-0.2-0.1-0.2C89.5,71.1,89.3,70.2,89.2,69.3z"/>
		<path d="M67.6,133.5c0.1,0,1.3-0.1,1.3-0.1s1.1,0.4,2.1,0.7c1,0.4,3.4,2.2,3.7,2.5c0.3,0.3,2,2.6,2.3,3c0.3,0.3,0.7,1,1.1,1.9
			s0,1.7-0.5,1.9c-1.7,0.6-2.2-0.6-2.2-1c0-0.4-0.1-0.4,0.2-1c0.4-0.6,1.2,0.2,1.1-0.6c-0.1-0.8-1.1-0.8-1.1-0.8s-2.1,0.3-2.1,2.4
			c0,2.1,1.3,2.7,2.7,3.1c1.3,0.4,2.8-0.2,3.3-1.1c2-3.8-0.6-7.5-0.6-7.6c-1-2.6-4.3-5.4-4.3-5.4s-0.5-0.7-0.7-1
			c-0.1-0.4,4.4,3,5.5,5.4c0.7,1.4,0.9,2,1,3.1c0,1-0.1,1.2,0.4,1.5c0.4,0.2,0.5-0.9,0.8-0.9c0.3,0,0.8-0.6,0.8-0.6s0.3-1.1,0.3-2.7
			c0-1.6-0.4-3.3-0.7-4.2c-0.4-0.9,0.3-0.3,0.3-0.3s0.8-0.2,1.6,3.3c0.8,3.5-0.6,5.3-0.4,5.5c0.2,0.2,0.8-0.7,1-1.1
			c0.3-0.4,0.4-0.9,0.5-1.9c0.1-1,0.8-3.8,1-4.1c0.2-0.3,0.4,1.1,0.3,3.5c-0.1,2.4-0.5,2.1-0.9,3.6c-0.3,0.9-1,2.9,1.2-0.1
			c0.9-1.2,1.5-4,1.5-4.5c0.1-1,0.7-2.1,1.1-2c0.4,0.1-0.2,1.3-0.4,2.1c-0.2,0.8-1,3.3-1.1,3.7c-0.1,0.4-0.5,1.1-0.6,1.4
			c-0.1,0.3,1.9,0.2,5.2-8.2c0.1-0.3,0.8-1.2,0.9-1.5c0.1-0.8,0.1-0.8-0.2-1.1c-0.2-0.1-0.2-0.4-0.7-0.4c-0.7,0-0.6,0-0.9,0.1
			c-0.5,0.1-0.2,0.9-0.7,1.2c-0.4,0.3-2.7,0.5-3.3,0.3c-0.6-0.1-1.1-0.2-1.5-0.2c-0.4,0-0.3-0.6-0.3-1c0-0.4-0.1-0.8-0.5-0.8
			c-0.3,0-1-1.4-1.6-1.5c-0.6-0.1-1.2-0.4-1.5-0.4c-0.3,0-1.2-0.3-1.9-1.1c-0.6-0.8-3.4,0-4.2-0.1c-0.5,0-2.9,1.2-3.5,1.2
			c-0.2,0-0.7,0.3-1.1,0.3c-0.2,0-0.6,0.3-0.7,0.3c-1,0-1.4,0.1-1.2-0.1c0.5-0.5,3.3-1.1,3.7-1.3c3.2-2,3.1-0.7,3.6-1.4
			c0.3-0.6,2.1-0.5,1.9-1c-0.2-0.6-2.4-0.2-2.9-0.2s0-0.4-3.2,0.9c-0.5,0.2-1.9,1.7-3.4,1.3c-0.6-0.1-3.7,0.4-4.4,1.2
			c-0.6,1-0.8,0.6-0.9,1.2c0,0.6,0,0.9,0.1,1c0.2,0,1.6,0,1.6,0s1.8,0.6,2,2.1c0.1,0.7-0.7,0.6-0.7,0.6s-0.4-0.6-0.3-0.9
			c0.1-0.3-0.1-0.5-0.6-0.3c-0.5,0.2-0.4,1.2-0.4,1.2S65.7,133.9,67.6,133.5z"/>
		<path d="M73.7,145.9c0,0-1.4-0.9-1.5-2.2c-0.1-1.3-1-0.9-1-0.9s-0.4,2.1,0.9,3.2c1.7,1.5,3.5,2,3.2,1.3
			C74.9,146.6,73.7,145.9,73.7,145.9z"/>
		<path d="M71.6,141c-0.9-0.4-4-1-4-1s0.4,1.6,1.7,1.6c1.2,0,2.7,0.2,2.7,0.2S72.5,141.3,71.6,141z"/>
		<path d="M73,137.4c-0.4-0.3-0.7-0.7-1-0.9c-1.7-1.3-2.8-1.6-2.8-1.6s-0.4-0.1-0.8,0.2c-0.2,0.1-0.3,0.2-0.4,0.4
			c-0.2,0.4,0.5,0.7,0.7,0.8c0.4,0.2,0.6,0.1,1.5,0.6c0.5,0.3,1,0.4,1.5,0.9c1.9,1.5,2.7,2,2.7,2S75.5,139.4,73,137.4z"/>
		<path d="M72.6,140.9c0,0,0.2,0.1,1-0.2c0.8-0.4-2.5-2-3.4-2.7c-0.9-0.7-3-1.1-3-1.1s-0.5-0.1-0.5,0.8c0,0.9,0.5,1.5,0.5,1.5
			s1.5-0.1,2.8,0.5C71.2,140.3,72.6,140.9,72.6,140.9z"/>
		<path d="M98.3,133.5c0.3-0.9,3.6-5.8,3.3-6.8c-0.2-1-1.5-0.5-1.9-0.7c-0.4-0.2-0.3,0.2-0.9,0.2c-0.7,0-1-1.2-1.4-0.6
			c-0.4,0.5-1.3-0.1-1.7,0c-0.3,0.1-0.7,0.1-0.4,0.8c0,0.1-1.7,1.3-1.8,2c-0.2,0.7,1.6,2,1.4,2.6c-1,2.9-2.7,6.6-3,7.1
			c-0.4,0.8-1.5,2-1.8,2.6c-0.2,0.4-0.2,0.9-0.3,1.3c0,0.2,1.9,0.6,2.6,1.6c0.2,0.3,0.4,0.5,0.5,0.5c0.2,0.3,0.5,0.6,0.6,0.9
			c0.6,1.2,1.1,2.5,2.1,2.5c0.6,0,1.5-0.6,1.7-1.5c0.2-0.8,0.3-1.7-0.8-2.4c-1.1-0.7-1.9,0.3-1.9,0.3s-0.3,0.5,0.1,0.8
			c0.4,0.3,0.2-0.4,0.6-0.4c0.4,0,0.4,0.1,0.6,0.2c0.2,0.1,0.7,0.8-0.2,1.5c-0.2,0.2-0.8,0.1-1.2-0.3c-0.4-0.5-0.4-1.2-0.4-1.4
			c0-0.2,0-0.4-0.1-0.5c0.5-0.2,0.8-0.5,1.3-0.7c0.5-0.2,1.4-0.4,1.8-0.2c1.3,0.5,1.6,0.7,2.1,1.3c0.5,0.6,0.7-1.6,0.2-1.8
			c-0.4-0.2-1.2-0.1-1.6-0.9c-0.4-0.7-1-1.8-1.4-2.1c-0.5-0.3-1.3-0.5-1.5-0.5c-0.1,0-0.6,0.2-0.2,0.8c0.4,0.6,1,1,0.2,0.8
			c-0.8-0.3-1.3-0.6-1.1-1.3c0.2-0.7,0.9-1.1,1.3-1.2c0.4-0.1,1.2,0.3,1.6,0.7c0.4,0.5,1.7,0.7,1.6,0.1c-0.1-0.6-0.5-2.5-0.8-2.4
			c-0.3,0-0.6-0.1-0.6-0.9C96.9,134.6,98,134.4,98.3,133.5z"/>
		<path d="M100.1,119.2c-1.4,0.5-2.5,1.3-3.5,2c-1.6,0.6-4.7,1.8-6.5,1.7c-1.6-0.1-0.9,0.4-2.9,0.2c-2-0.2-3.4,1.2-4.8,1
			c-1-0.1,0,0-1.9,0c-1.3,0-1.2,0.6-1.1,1c0.1,0.2,0.9,0.3,2,0.4c1.1,0.1,2.4,1.1,3.4,1.7c1,0.5,1.4,1.8,1.7,2.2
			c0.3,0.4,1.9,0.5,3,0.3c1.1-0.1,1.5-0.9,2.1-2.4c0.6-1.5,1.5-1.6,2.5-2.5c0.1-0.1,0.2-0.1,0.3-0.2c1.8-0.4,3.2-0.7,3.5-0.7
			c1,0.2,1.7,1,2.6,0.9c0.9-0.1,0.9,0.1,1.1-0.3c0.2-0.3-0.2-0.3-0.9-0.8c-1.7-1.2,0.9-2.4,1.8-1.6c0.9,0.8-0.9,1.1,0.3,1.3
			c0.8,0.1,1.4-1,1.1-2.2C103.8,120.1,102.6,118.3,100.1,119.2z"/>
		<path d="M96.8,148.4c-0.1-0.1-0.3-0.2-0.7-0.3c-1.2-0.1-0.9-0.2-1.6-0.5c-0.7-0.3-0.3,0.1-0.7-1.6c-0.5-2.1-2.2-3-3-3.1
			c-0.8-0.1-2.5-0.3-3.1-0.2c-0.5,0.1,0.8,0.8,1.4,0.9c0.7,0.1,1.6-0.3,2.1,0.4c0.5,0.7,0.8,1,0.7,1.4c0,0.4-0.1,1.1-0.6,1.2
			c-0.5,0.1-0.3,0.3-1.2,0.4c-0.6,0.1-0.9,0.1-1.4-0.3c-0.5-0.4-0.7-1-0.4-1.5c0.3-0.5,1.2-0.9,0.4-1.1c-0.7-0.2-2.1-1.2-2.7-0.9
			c-0.6,0.3-1.7-0.2-2.3,0.2c-0.6,0.4-1,0.4-1.5,0.7c-0.5,0.3-0.5,0.5-0.5,0.5s-0.2,0.4,0.1,0.4c0.4,0,0.8-0.4,1.6-0.2
			c0.7,0.2,2.5,1.9,2.6,2.1c0.2,0.2,0.5,0.8,0.6,1.2c0,0,0,0,0,0c-0.6,0-1.2,0-1.8,0c-0.3-0.3-0.5-0.5-1.1-0.5
			c-0.7,0-0.7-0.4-1.3-0.8c-0.2-0.2-0.5-1-0.9-1.3c-0.4-0.4-2.5,0.5-2.8,0.6c-0.3,0.2-1,0.6-2.3,1.6c-0.2,0.1-0.3,0.3-0.5,0.4
			c-1.3,0-2.4,0-3.2,0c-0.1,0-0.1,0-0.2-0.1c-1.1-0.5-1.4-1.4-1.7-1.9c-0.3-0.5-0.2-1.9-0.3-2.6c0-0.7-0.3-0.8-0.8-0.8
			c-0.5,0-0.3,1.1-0.2,1.9c0.1,0.8-0.4,1.6-0.1,2.9c0.2,1,0.5,2.3,0.8,2.2c0,0,0,0,0.1,0c0.5,0.6,1.1,1.1,1.9,1
			c-2.3,0.2,20.7,0.3,22.7,0.1c1.3,0.1,1.9-1.4,1.7-2.1C96.9,148.6,96.8,148.5,96.8,148.4z"/>
		<path d="M161.1,52.3c-1.6-3-8-8.6-11.6-11c-1.4-0.9-3-1.5-4.7-2.3c-1.1-0.5-2.1-1.3-3.2-1.8c-1.9-0.8-3.5-1.1-4.9-1.6
			c-1.4-0.5-2.8-1.2-4.2-1.7c-1.9-0.6-3.7-0.8-5.5-1.2c-0.8-0.2-1.6-0.6-2.3-0.8c-1.6-0.3-2.9-0.3-4.2-0.4c-1-0.1-2-0.4-2.7-0.3
			c-2.8,0.1-8.9-1.1-9.6,2.9c0.1,0.9,0.6,2.3,0.5,3.5c-0.1,2.1-3.4,3.1-4.5,3.1c-3.1,0.1-5.8-0.2-9.2,3c-3.3,3.1-3.5,9.9-3.6,9.9
			c-0.1,0.8-0.1,1.3,0.1,1.6c-0.1,0.1-0.2,0.1-0.2,0.1c-0.5-0.1-0.2-1.3-0.2-2.6c0-1.4-0.2-1.8-0.3-2.8c-0.1-0.9,1.7-5.9,3.3-7
			c0.6-0.4,1.1-0.9,1-1c-0.6-0.8-3.7-0.3-4.9,0.6c-0.4,0.3-0.8,0.2-1.5,1c-0.1,0.1-0.5,0.6-0.9,1c-0.2,0.2-0.7,0.6-0.9,0.8
			c-0.6,0.7-1.4,1-1.4,1s-2.3,1.5-1.3,1.1c1.2-0.5,1.7-0.2,2,0.2c0.3,0.5,1.2,2.8,1.2,4.1c0,1.4-0.7,2.6,0,2.3
			c0.7-0.3,0.4-2.6,0.4-2.6l-0.2-2.9c0,0,0.1-0.7,0.2-0.6c0.1,0.2,0.2,0.5,0.4,1c0.5,1.7,0.3,6.6-0.3,7.8c-0.5,0.9-0.5,2.4-0.1,3.3
			c0.6,1.2,0,0.7-0.4,0.4c-0.6-0.4-1.3-1-1.9-1.5c-0.6-0.6-0.7-1.4-0.5-1.7c0.4-0.7,0.6-0.4,1.1-0.5c0.3,0-0.2-0.5-1-1.1
			c-0.1-0.1-0.4-0.1-0.6-0.2c-0.1-0.1-0.2-0.2-0.3-0.3c-0.1-0.1-0.5-0.1-0.6-0.3c-0.4-0.5-0.8-0.7-0.9-0.8c-0.2-0.2,0.6-0.1,1.3,0
			c0.5,0.1,1,0.1,1.2-0.1c0.2-0.1,0.4-0.3,0.2-0.3c-0.8-0.2-2.8-0.5-3.5-0.7c-1-0.3-1.2,0-2-0.6c-0.9-0.6-0.4-2.8-0.4-2.8l1.2,0
			l0.7-0.5c0,0.1,0.1,0.1,0.2,0c0,0,0.2-0.1,0.3-0.3c0.1,0,0.2-0.1,0.2-0.3c0.5-0.6,1.2-1.4,1.3-1.4c0.1-0.1,0.2-0.4,0.3-0.5
			c0.1-0.1,0.4,0,0.5-0.1c0.1-0.1,0.3-0.2,0.4-0.4c0.1-0.1,0.2-0.2,0.4-0.4c0.6-0.6,1.1-1.3,1.4-2.2c0.2-0.5,0-1.1,1-1.4
			c1-0.4,1.2-0.2,1.4-0.5c0.2-0.2,0.6-0.6,0.7-1.1c0.1-0.5,0.1-0.3-0.2-1.2c-0.3-0.8-0.5-1.3-0.8-1.3c-0.3,0-0.5-1.2-0.3-1.6
			c0.1-0.4,0.4-0.7-0.1-0.8c-0.4-0.1-1.1,0.7-0.9,0c0.2-0.7,0.6,0,0.6-0.5c0-0.4,1.3,0.3,1.6-0.8c0.3-1,0-2.9-0.5-3.4
			c-0.5-0.5-1.1-1.2-0.8-1.4c0.3-0.2,1-0.7,0.4-1.3c-1-1-0.5-1.8-0.9-2.8c-1.5-3.1-3-3-3.3-3c-0.4,0-0.5,0.6,0.1,1.7
			c0.6,1,0.1,1,0,0.9c-0.1,0-0.8-0.2-1.1-0.3c-0.3-0.1-0.4,0.4,0.2,1.4c0.7,1,1.3,1.5,1.4,2c0.1,0.5,0.3,0.6-0.2,0.6
			c-0.5,0-1.4-0.3-1.6-0.2c-1.5,0.5,0.4,3.4-0.1,3.3c-0.2,0-1.1-2-1.5-2.4c-0.4-0.4-0.4-0.9-0.3-1.6c0.1-0.7-0.3-1.3-0.4-1.5
			c-0.1-0.3-0.9-0.8-0.1-1.8c0.9-0.9,1.6-1,1.2-1.1c-0.4-0.1-1.3-0.5-1.5-0.6c-0.2-0.1-0.4-0.1-0.4,0.3c0,0.4,0,0.9-0.4,1.3
			c-0.3,0.4-0.2,0.9-0.6,0.9c-0.3,0-0.6,0.1-0.8,0.2c-0.2,0.2,0,0.1-0.5,0.6c-0.3,0.4-0.4,0.4-0.3,0.5c0.2,0.1,0.5,0,1.2,0
			c0.7,0,0.9-0.2,1,0.4c0.1,0.6,0.2,1-0.2,1.1c-0.4,0.1-1.4,0-1.8,0.6c-0.5,0.6-0.2,1-0.7,1c-0.5,0-0.9-0.3-1.1,0
			c-0.2,0.4,0,0.8,0,1.2c0,0.4-0.6,0.8-1,0.8c-0.4,0-0.7-0.3-0.9-0.6c-0.2-0.3-0.1-0.6-0.3-0.5c0,0-0.3,0.1-0.1,0.8
			c0.1,0.7,0.9,1.1,0.9,1.8c0,0.7,0.1,1.1,0.1,1.6c0,0.3,0.4,0.8-0.1,1.3c-0.2,0.2-1.6,0.2-2.4,0.7c-0.7,0.4,0.9,2.4,0.7,2.9
			c-0.2,0.5-0.4,0.8-0.5,1.2c-0.1,0.7,0.3,0.8,0.4,1.3c0.1,0.3-0.1,0.6-0.2,0.7c0,0-0.1-0.1-0.1-0.1c-0.4-0.3,0-1-0.5-1.4
			c-0.9-0.7-0.5-0.7-0.2-1.8c0.3-1.4-0.3-2.3-0.6-2.7c-0.2-0.3-1.4-1-2.3-1.5c-0.8-0.9-4.3-0.6-4.6-1.1c-0.8-1.6,1.6-4.3,2-6
			c0.1-0.2,0.2-1.1,0.2-1.2c1.1,0.4,6.5,2.3,7.3,2.6c0.1,0.1,0.3,0.2,0.4,0.2c0.4,0,0.7,0,1-0.6c0.2-0.3-0.8-0.3-1-0.4
			c-1.4-0.6-6.1-2.2-7.4-2.8c0.2-0.6,0-1-0.1-1.4c-0.2-0.5-0.6-1.1-1.8-1.1c-0.2-0.3-0.7-0.5-1-0.4c0,0-0.1,0-0.1,0
			c-0.1-0.1-0.3-0.1-0.5-0.2c-0.3-0.3-0.7-0.4-1.2-0.3c0,0,0,0,0,0c-0.5-0.3-0.7-0.4-1.3-0.5c0,0-0.2,0-0.3,0c0,0-0.1,0-0.1-0.1
			c-0.4-0.2-1.5,0-2.1,0.2c-1.6-0.8-3.2-1.5-3.7-1.7c-4.9-2.2-22.5-9.3-26.4-10.9c-2.1-0.8-5.8-2.5-8.6-4.2c-1.1-0.7-2.1-2.1-3-5
			c-0.2-0.5,0-1.9-1.3-0.4c-1.3,1.6-2.8,4.6-3.2,8.2c-0.1,0.4-0.3,1.5,0.6,1c1.2-0.6,3.5-1.8,5.7-1.3c2.8,0.6,11.7,3.8,18.4,6.6
			c4.5,1.9,18.5,7.4,20,8.3c0.2,0.1,0.2,0.1,0.2,0.2c-0.1,0-0.2,0-0.3,0c-0.1,0-0.1,0-0.1,0c0,0.2-3.1-1-10.5-1.5
			c-0.4,0-2.2-0.3-4.8-0.2c-1.1,0.1-2.5,0.3-4,0.5c-1.6,0.2-3.3,0.3-5.2,0.6c-1.1,0.2-2.7,0.3-3.8,0.5c-2.7,0.6-4,1.4-5.3,2
			c-1.2,0.6-2.7,0.6-4,1.1c-5.8,2.2-11.7,5.5-16.8,10.2C0,39.1-1.3,40.1,2,39.5C3,39.4,3.6,39.6,4,39c0.8-1.1,5.2-2.8,3.9,0.2
			c-0.6,3.5,1.5,1.9,3.6,0.8c0.6-0.3,6-3.2,6.4-3.1c0.2,0,0.3,0.1,0.4,0.2c0,0.1,0,0.3-0.1,0.5c-0.6,1.3-3.1,4-3.2,4
			c-0.2,0.9,0.7,1.1,2,0.5c3.4-0.8,6.2-3.2,9.8-4.1c2.3-0.6,3.9-1.2,4.4-0.9c0.3,0.1,0.2,0.8,0.2,1c0.1,1.9-1.4,5.9-0.3,6.2
			c1.2,0.3,4.2-4.7,4.9-5.5c0.3-0.4,0.6-0.7,0.8-0.9c0.3-0.3,0.4-0.1,0.5,0.1c0.2,0.8,0.3,1.6,0.3,3c0,0.6,0,1.7-0.5,2.9
			c-0.9,2.3,0.7,1.3,2.2,0.4c0.6-0.4,2.3-1.5,3.1-2.3c1.1-1.1,2.3-2.5,2.3-2.5c0.2-0.2,0.3-0.3,0.6-0.3c1.4,0.3-0.5,7.2,1.8,7.2
			c2,0,2.9-4.1,3.7-3.8c0.8,0.3,2.3,5.4,3.9,5.7c0,0-0.3-1,0-1.9c0.3,0.5-0.3-1.6,0.2-1.1c3.1,2.6,1.8,3.3,1.9,5.1
			c0.2,3.2,2.5,2.4,2.7,2.6c1,1.3-0.4-1.8,0.7-0.8c0.3,0.2,2.7,0.9,2.6,1.3c-0.7,2.2,1.8,5.5,0.2,7.1c-0.6,0.7-1.1,1.4-1.4,2.2
			c-1.5,1.9-3.4,5.1-4.3,9.4c0.7,4.3,4.4,9.1,5.3,9.7c1,0.7,1.2,0.3,1-0.6c-0.2-0.7,0.3-1.2-0.4-2.1c-0.3-0.3-0.4-1.5-0.6-1.9
			c-0.7-1.6-1.1-3.1-1.2-3.7c-0.1-0.5-0.2-0.9-0.2-1.4c0-0.2,0-0.4,0-0.6c0-0.5,0-1.1,0.1-1.8c0.1-0.5,0.2-1,0.3-1.4
			c0.1-0.3,0.2-0.4,0.3-0.6c0.2-0.4,0.3-0.7,0.5-1.1c0.1-0.2,0.1-0.4,0.2-0.6c0.2-0.3,0.4-0.3,0.5-0.5c0.2-0.3,0-0.5,0-0.7
			c0.5-0.8,1.1-1.6,1.6-2.4c0.5-0.7,1-1.4,1.2-1.6c0.1-0.1,0.1-0.1,0.1-0.2c0.4-0.5,0.8-0.8,1.1-1c0.7-0.3,1.2-0.6,1.6-0.9
			c0.2,0.1,0.5,0,1-0.2c1.8-0.7,3.5-2.3,3.5-2.3l0.1-0.5c0.5-0.5,0.9-0.9,1.3-1.3c0.3-0.2,0.5-0.5,0.7-0.7c0.4-0.1,0.9-0.1,1.3,0
			l1.5-3.4c0,0,0.4,2.4,0.6,3c0.1,0.6,0.9,2.2,1.6,2.2c0.7,0-0.1-1.2-0.1-1.2s0.6,0.3,1.5,1.1c0.9,0.8,2.2,0.8,2.7,1.8
			c0.4,1.1,0,1.2,0,1.2s-6-2-8.4-1.5c-2.4,0.5-6.1,1.7-7.5,3.2c-0.3,0.3-0.4,0.6-0.5,0.9c-0.3,0.4-0.6,1-1.1,1.5
			c-0.2,0.2-0.2,0.6-0.4,0.8c-0.2,0.3-0.1,0.5-0.3,0.9c-0.7,1-0.6,2.1-1.3,3.7c-0.2,0.6-0.8,1.6-0.9,2.2c-0.2,0.7-0.1,1.4-0.2,2.2
			c0,0.6-0.2,1.2-0.2,1.8c0,1.3,0.3,2.5,0.5,3.6c0.3,2,0.9,5.8,0.8,8.4c0,0.3,0.1,0.8,0.1,1.1c0,0.3-0.2,0.6-0.2,0.9
			c0,0.3,0.2,1,0.1,1.3c-0.1,2.4-0.5,4-0.5,5.5c0,0.7-0.1,1.2,0,1.8c-0.9,4.2-3.1,8.1-5.6,10.6c-1.8,3.8-6.2,4.9-11.8,5.8
			c-1.2,0.6-4-1.3-3.9-1.7c-2.1-1.1-3.8,2.9-2.5,2.9c2,0.9,3.7,9.2,6,7.8c1.6-1,1.4,1.6,3,0.6c0.7-0.2,1,0,1.6-1.1
			c1.4-2.3,3.6-3.5,4.9-4.9c0.9-1,2.5-5.5,3-5.4c0,3.1-3.9,8.4-5.7,9.4c-2.7,2.8-1.3,4.2-0.1,6.8c0.3,0.6,0.3,1.1,0.9,1.6
			c0.2,0.2,0.7,0.5,1,0.7c1.1,0.9,4.1,0.9,5.1,0.3c1.1-0.6,2.2-0.2,2.4-0.6c0.4-0.7-1.6-3.4-2.2-4.1c-0.5-0.6-1-0.5-0.8-1.4
			c0.4-1.4-0.8-1.2-0.1-2.7c0.8-1.8,1.4-4.4,2-6c0,0,4.2-11.1,4.3-12.9c0.2-1.3,1.6-4.7,1.9-3.8c-0.6,4.9-2.2,11.8-4.2,18.6
			c0.5,3-1.4,4.3-1.3,6.6c0,1.4,1,1.1,1.4,1.2c1.7,0.2,2.8,1.4,4,1c1.6-0.4,4.3-2.4,3.4-2.3c-0.7,0,0.9-2.9,0.9-4.1
			c0-1.1-1.7-4.2-2-7.9c-0.1-1.3,2.5-3.1,2.4-3.7c0-0.6-2.3,0.2-2.7-0.6c-0.6-1.3-0.5-4.9-0.2-6.8c0.1-1.9,0.6-7.1,0.5-7.8
			c0.3-1.5,3.4,2.4,4.4,4.7c0,0,0.1,0.3,0.2,1.3c0,0.3-0.1,0.7,0,1.1c0,0.5,0.1,1,0.1,1.6c0,0.2,0,0.5,0,0.7c0,0.2-0.1,0.6-0.1,0.8
			c0,0.4,0.1,0.7,0.1,1.2c0,0.7,0,1.4,0,2.1c0,0.4-0.1,0.3-1,0.8c-0.5,0.3-0.8,0.2-0.8,0.7c0.1,0.8,1.7,1.1,1.9,3.2
			c0.1,0.9-0.1,4.4,0.3,6.4c0.1,0.4,0.2,1,0.2,1.1c0.3,0.3,0.3,1.7,0,2.3c-0.1,0.2-0.5,2.2-0.2,2.2l2.6-0.4c0.2,0,0.4,0,0.6-0.1
			c0.2,0,0.3,0,0.5,0c0.4,0,1-0.2,1.6-0.8c0.9-0.4,1.6-0.3,2.1-0.5c0.6-0.3,3.8,0.1,4.5-0.1c2.8-0.8,7.2-0.9,8-1.7
			c0.5-0.1,1.1-0.3,1.6-0.5c-0.2,0-0.7,0-1.3-1.8c-0.7-2.2-1.8-4-3.2-5.3c-1.3-1.3-6.6-7.4-6.6-7.4s1.6,0.9,2.2,1.1
			c2.3,0.8,4.8,1,4.8,1s1.7,2.9,2.9,4.5c1.2,1.6,3.9,4.1,4.6,5.1c0.7,1.1,0.6,1.3-0.4,1.6c-0.8,0.3-1.6,0.6-2.1,0.9
			c1.3-0.5,2.5-1.1,3.1-1.1c0.4,0.1,0.7-0.1,1,0h0.3c3,0.6,4.2,5,4.9,5.1l0,0c1.4,0.4,1.7-0.3,3.2-1c1.4-0.6-2-2-1.1-4.3
			c0.3-0.8,1.4-3.7,2.6-4.9c0.6-0.6,1-0.3,1.3-0.6c0.4-0.5,0-1.7-0.4-2c-0.7-0.6-2.5-0.2-3.6,2.2c-0.1,0.2-0.5,0.4-0.6,0.4
			c-0.2,0-0.3,0.3-0.6,0.1c-0.3-0.2,1.4-1.5,1.1-1.8c-0.9-1-2.8-1.2-1.5-1.8c0.4-0.6-0.4-1.4-0.4-2c-0.4-2.7-3-3.7-5.9-4
			c-0.3,0-0.2-0.5-0.6-0.4c-0.4,0.1-1.2,0.3-1.6,0.3c-0.5,0-0.9-0.2-1.4-0.1c-0.3,0.1-0.6,0.1-0.9,0.1c-0.3,0-0.6-0.1-0.9-0.1
			c-0.5,0-0.9,0.1-1.4,0.2c-1.2,0.1-2.1,0.1-2.7-0.1c-0.7-0.1-0.7,0.3-2.2,0.4c-5.2-1-8.1-2.9-12.1-7.3c-2.7-1.7,0.6,0.1,0.5-0.5
			c1.7,0.4-2-1.1-4-2.6c-0.7-1.1-1.7-0.6-3.4-2.4c-0.2-0.2-0.7-0.4-1.7-1.2c0-0.1,0-0.2-0.1-0.2c-0.4-1-1.2-1.6-1.1-3
			c0.1-1.4-0.7-2.3-0.7-2.3s1.1-0.8,0-2.1c-0.5-0.6-0.8-1.3-1-1.9c0-0.2,0.1-0.5,0.1-0.8c0.1-0.7-1.3-1.5-0.8-5.4
			c0.1-0.4,0.4-1.7,0.5-2.1c0.1-0.4-0.3-1.1-0.2-1.6c0.1-0.5,0.7-0.7,0.8-1.2c0.2-0.6,0.3-1.8,1-3c0.5-0.9,0.9-2,1.3-3.1l1.4-2.3
			c0,0,2-1.7,4-1.7c2.1,0,3-3.3,10.1,1.2c1.4,0.9,1,3.1,1.8,3.7c0.7,0.5,0.7,0.8,0.8,1.3c0.2,0.9-0.6,1.9-1.2,2.5
			c-1.3,1.3-5.9,8.4-4.2,7.2c2.5-1.7,2.2-3.8,2.8-4c0.6-0.1,2.6-3.2,3.5-3.8c0.6-0.4,0.9,0.9,1.2,2.4c0-0.9,0-1.7,0-2.3
			c0-2.1,1.1-3.7,1.7-4.6c0.7-1.1,0.9-1.6,3.5-6.1c2.5-4.5,3.6-4.9,3.6-4.9s0.9-0.3,1.4-0.3c0.5,0,0.7,0.2,1.2,0.3
			c0.5,0.1,0.6,0,1.2,0.2c0.6,0.2,0.4,0.6,0.3,1.2c-0.1,0.6-0.3,0.7-0.3,0.9c0,0.2-0.3,3.1-2.8,5.6c-1.8,1.8-6.6,6-7,6.5
			c-0.4,0.5-0.3,0.6-0.2,1.1c0,0.5,0.7,1.4,1,1.7c0.4,0.3,0.6,0.7,0.5,1c-0.1,0.3-0.3,0.4-0.9-0.1c-0.9-0.7-1.5-0.6-1.5,0
			c0,0.6-0.1,1.4,0.3,2c0.3,0.4,1.2,1,1.7,0.8c0.3-0.1,0.5-0.2,0.6-0.1c0.1,0.1,0.1,0.2-0.4,0.6c-0.5,0.5-1.7,0.4-3-0.5
			c-0.1-0.1-0.2-0.2-0.3-0.3c0.5,1.6,0.8,3,1.2,3.9c0,0.1,0.1,0.1,0.1,0.2c0.1,0.1,0.2,0.2,0.2,0.3c2.5,3.5,3.9,3,3.9,3
			s1.7,0.5,2.4,0.7c0.1,0,0.2,0.1,0.3,0.1c0,0,0.1,0,0.1,0.1c0.3,0.2,0.9,0.6,1.4,1.2c0.4,0.4,0.3,0.5,0.8,0.7
			c0.5,0.2,0.2,0.2,0.6,0.2c0.8,0,2.2-0.2,2.7,0c0.2,0.1,0.5-1.3,1.9-2.2c0,0,0.6-0.8,0.6-0.8c0,0-2.5,2.6-4.3,1.3
			c-2.6-1.9-2.9-3.4-4.3-4.8c-0.1-0.1-0.5-0.6-0.6-0.7c-0.2-0.2-0.3-0.2-0.4-0.4c-0.1-0.1-0.3-0.4-0.4-0.5c-0.6-0.6-1.1-1.8-1.3-2.1
			c-0.1-0.3-0.3-0.6-0.2-0.4c0.2,0.2,0.6,0.6,1.1,1c0.2,0.2,0.9,0.5,1.1,0.7c0.1,0.1,0.2,0.2,0.3,0.3c0.1,0.1,0.2,0.2,0.3,0.3
			c1.9,1.8,5,1.6,5.6,1.6c0.1,0-0.1-0.1,0-0.1c0.1,0,1.1,0.6,1.3,0.6c0.1,0,0.2-0.1,0.3-0.1c0.3,0,0.6,0.1,0.8,0
			c0.1,0,0.2-0.1,0.3-0.2c0.2-0.1,0.4,0,0.5-0.2c0.5-0.7,0.6,0.1,0.8-0.5c0.1-0.3,0.3,0.1,0.3-0.1c0.1-0.2,0.3-0.3,0.3-0.3
			c0.1,0.1-0.2,1.9-0.4,3.4c-0.3,1.5-3.1,4.1-3,4.5c0.5,1.6,1.4,2.6,2,3.4c0.6,0.8,1,1.4,1.1,1.5c0.4,0.7,1.2,0.4,1.9-0.3
			c0.3-0.3,0.4-0.7,0.6-1.1c0.1-0.1,0.3-0.4,0.5-0.7c0.2-0.3,0.5-0.6,0.8-1.1c0.1-0.2,0.1-0.5,0.2-0.7c0.1-0.2,0.4-0.4,0.5-0.6
			c0.3-0.5,0.3-0.8,0.4-1.2c0.1-1.1-1.4-1.7-1.4-1.8c0.1-0.5-1.2-1-0.9-2.7c0.6-2.8,2.4-3.6,1.1-5.5c-0.3-0.4-0.3-1.1-0.5-1.4
			c-0.3-0.3-0.5-0.4-1-0.6c-0.7-0.3-1.5,1-2.4,0.9c-2.3-0.3-4-2-4-2s-4.4-2.4-4.7-3.6c-0.1-0.5-2.1-2-1.7-2.4c0.3-0.2-0.2,0.1,0-0.1
			c0.2-0.1,0.4-0.3,0.6-0.4c0.1-0.1,0.1-0.3,0.2-0.2c0.7,0.7,2.5,3.8,3.5,4.3c1.2,0.6,1.4,0.7,2.4,1.8c1,1.2,1.1,0,1.1-0.8
			c0-0.7,0.8-2,0.7-2.9c-0.1-1.8,0-2.9,0.6-5c0.6-2.1,0.9-3.6,0.1-6c-0.2-0.5-0.1-1-0.1-1.5c0-1.1-1.1-3.2-1.7-3.5
			c-0.5-0.3-1.5-0.9-3.4-0.2c-0.4,0.1-0.6,0.2-0.8,0.3c-0.1,0-0.4,0.3-0.4,0.2c-0.2,0-0.1-0.2,0.1-0.4c0.1-0.1,0.4-0.3,0.6-0.5
			c0.5-0.3,1.4-0.8,2-0.7c0.7,0.1,0.9-0.4,0.3-0.5c-0.6-0.1-1.4-0.3-2.1,0c-0.4,0.1-0.6,0.2-1,0.5c-0.1,0.1-0.2,0.1-0.3,0.2
			c-0.1,0.1-0.2,0.3-0.2,0.3c-0.1,0.1-0.6,0.4-0.6,0.5c-0.5,0.5-0.5,0.6-0.7,0.9c-0.4,0.6-1.9,1.6-2.4,2.9c-0.4,1.2-0.8,1.9-0.8,1.1
			c0-0.7-0.1-0.5,0.3-1.9c1.4-2.3,3.7-5,4.9-5.7c2.4-1,2.8,0.2,3.8,0.6c1.9,1.4,3.6,2.8,3.6,6.2c0,1.1,2-0.1,2.2-0.5
			c0.7-1,1.9-2.1,2-1.9c0.2,0.1,0.7,0.8,1.1,1.5c0.3,0.5,1.9,2.7,2.3,3.2c1.1,1.3,1.6,1.2,1.3-0.4c-0.4-1.9,0.9-5.4,1.1-6.2
			c0.2,0,3.3,2.6,3.8,3.1c1.9,1.9,2.8,2.4,3.3,2c0.6-0.4,0.3-1.3,0.2-2c-0.2-1.8-0.7-4.5-0.3-4.8c0.4-0.3,2.5,1.3,3.4,2.6
			c0.6,0.8,3.6,4,4.8,3.8c0.5-0.1-0.4-0.9-0.7-2.3c-0.3-1.5-0.7-4.6,0.3-4.5c1.7,0.2,2.3,1.1,4.2,2.4c0.9,0.6,2.7,2.4,5.4,3.6
			c2.5,1.1,2.9,0.7,2.4-0.2c-0.2-0.5-1.6-2.7-1.9-3.5c-0.2-0.8,0.1-1.4,0.6-0.9c2.4,1.9,6.8,3.9,7.3,4c2.2,0.6,3.3,1,3.7,0.5
			c0.5-0.8-0.3-2.1-0.3-2.9c0-0.4,0-0.7,0.3-0.5c0.4,0.3,0.8,0.7,1.2,1.1c1.6,1.5,3.1,2.4,5.7,3.1C161.3,53,161.3,52.7,161.1,52.3z
			 M70.9,42.3c-0.1-0.1-0.2-0.3-0.3-0.5C70.7,42,70.8,42.1,70.9,42.3z M63.7,24.2c-0.1,0-0.3,0.1-0.4,0.1c0,0,0.1-0.1,0.1-0.1
			c0,0,0-0.1,0-0.1C63.5,24.1,63.6,24.2,63.7,24.2z M61.7,24.2C61.8,24.2,61.8,24.2,61.7,24.2c0,0-0.1,0-0.2,0
			C61.7,24.1,61.7,24.1,61.7,24.2z M62.5,24.3c0,0,0.1,0.1,0.3,0.1c-0.1,0-0.2,0.1-0.3,0.1c-0.1-0.1-0.3-0.1-0.4-0.2
			C62.2,24.3,62.5,24.3,62.5,24.3z M77.6,49.1c0-0.1,0-0.2,0-0.2c-0.6-0.1-0.6,0.4-1.3,1.1c-0.1,0.1-0.1,0.1-0.2,0.2
			c-0.2,0.2-0.5,0.4-0.8,0.5c-0.9,0.3-2.8-0.1-4.8,0.4c-0.9-0.1-1.8,0-2.3,0.4c-0.3,0.2-0.3,0.4-0.2,0.7c-0.8,0.3-1.9,0.5-2.3,0.1
			c0-0.1,0.1-0.3,0.2-0.4c1.4-2.2,1.7-1.3,1.1-4.1c-0.1-0.8-0.2-1.5-0.2-2.1c-0.2-0.2-0.5-0.6-1.4-0.4c-0.9,0.2-1.8,0.2-4.1-0.2
			c-0.8-0.1-1.4-0.3-2.2-0.6c-0.2-0.1-0.6-0.1-0.8-0.1c-0.2-0.1-0.4-0.2-0.6-0.2c-0.1,0-0.3,0-0.4-0.1c-0.8-0.3-1.5-0.7-2.2-0.9
			c-0.5-0.2-1.2-0.3-1.6-0.4c-0.4-0.1-1.3-0.4-1.5-0.6c-0.4-0.3-0.3-0.4-0.2-1.4c0.5-6.7,4.4-9.9,4.7-10.4c1-1.9,2-2.8,2.6-3.7
			c0.6-0.9,0.5-1.8,0.7-1.9c0.4,0,0.9,0.4,1.2,0.4c0.6,0.1,0.5,0.3,1.1,0.1c0.1,0,0.8,0.1,1,0.2c0.1,0,0.2-0.2,0.3-0.3
			c0.1-0.2,0.2-0.6,0.4-0.7c0.2,0,0.4,0.1,0.4,0.4c0,0.3,0,0.7-0.1,0.8c0,0.1-0.2,0.5-0.3,0.6c0,0,0,0,0,0c0,0,0,0-0.1,0
			c0,0-0.1,0.1-0.1,0.1c0,0,0,0,0,0c-0.3,0.4-0.6,0.9-1.4,1c-1.8,0.2-3.1,5.4-3.8,7.2c-0.4,1-1.4,2.5-1.3,3.7c0.1,0.2,0.5,0.4,1,0.5
			c0.6,0.1,1.3,0.2,2.3,0.2c0.4,0,0.9,0,1.4-0.1c0.3,0,0.6,0.1,1,0.1c0.4,0,0.8-0.1,1.2-0.1c0.7,0,1.4,0,2.2-0.1
			c0.7,0,1.3-0.3,1.4-0.3c1.1-0.3,1.8-0.3,2.2-0.2c0,0.3,0,0.6,0,1.1c0,0-0.1,0.1-0.1,0.1c-0.3,0.2-1.1,0.7-1.2,2.2
			c-0.1,1.5-0.1,1.1,0.4,1.8c0.7,1,0.4,0.3,1,0.1c0.7-0.2,2.1,1.1,2.3,0.4c0.1-0.2,0-0.4-0.2-0.7c0.2,0.1,0.4,0.2,0.6,0.2
			c0.1,0,0.3,0,0.4-0.1c0,0,0.1,0.1,0.4,0c0.5,0,0.8-0.9,0.7-1.9c-0.1-1,0-0.3,0-0.9c0-0.6,0-1.4,0.3-2c0.3-0.6,1.5-0.5,1.5-1.4
			c0-0.9,0-2.7,0.3-2.6c0.3,0.1,0.5,1,0.5,2c0,1.1-0.1,1.2,0.3,1.6c0.4,0.4,0.9,0.6,0.9,0.6s0.7,0.2,0.4-0.9c-0.3-1.2-0.9-1.2-0.6-2
			c0.3-0.8,0.6-1.8,1.7-0.7c0.7,0.7,0.4,0.4,1,1.5c0.3,0.5,0.6,0.9,0.4,1.7C80.4,39,80.1,39.1,80,40c-0.1,0.9-0.2,1.1,0.6,1.3
			c0.8,0.2,1,0.3,1.8-0.3c0.7-0.6,1.2-1,1.5-0.9c0.3,0.1,0.8,0.1,0.6,0.6c-0.2,0.5-0.4,0.2-0.6,0.6c-0.1,0.2-0.5,1,0.1,1
			c0.5,0,0.1,0.6,0.4,0.8c0.3,0.1,0.4,0.2,0,0.9c-0.4,0.7-0.1,0.3-0.6,0.8c-0.4,0.4-1.5,2.2-1.8,3c-0.6,0-1.5,1.3-2.3,1.1
			C79,48.5,78.3,48.7,77.6,49.1z M96.7,68.2c3.2,2.8,4.6,2.5,5.2,2.5c0.7,0,2.8,0.6,2.8,1c0,0.4-0.8-0.2-1-0.2
			c-4.3,0.2-6.6-1.5-7.6-2.1c-1-0.6-1.7-3.3-2.7-4.1c0.3-0.3,0.4-0.4,0.6-0.6C94.6,65.1,96.3,67.9,96.7,68.2z"/>
	</g>
</g>
</svg>
