<?xml version="1.0" encoding="utf-8"?>
<!-- Generator: Adobe Illustrator 26.0.3, SVG Export Plug-In . SVG Version: 6.00 Build 0)  -->
<svg version="1.1" id="Capa_1" xmlns="http://www.w3.org/2000/svg" xmlns:xlink="http://www.w3.org/1999/xlink" x="0px" y="0px"
	 viewBox="0 0 409.4 72.5" style="enable-background:new 0 0 409.4 72.5;" xml:space="preserve">
<style type="text/css">
	.st0{fill:#DFE2F3;}
	.st1{fill:#0658A5;}
</style>
<g>
	<path class="st0" d="M67.3,68.1c-1.1,1.2-2.2,0.9-3.1-1c-1.3-2.8-2.7-6.5-4.1-10.3c-3-6.2-4.3-18.7-10.2-18.7
		c-4,0-9.6,7.2-10.1,7.9c-3.9,5.3-11.3,16.3-17.4,20c-2,1.2-4.2,0.8-5.4,0.3c-2-0.8-5-3.7-6.6-6.7C5.1,49.7,13.7,31,20.2,21.4
		c4.9-6.5,9.2-10.7,12.9-12.3c5.7-2,10.2-3.7,12.4,1.1c0.9,2.1-0.2,7.3-5.2,11.2c-3.6,2.8-15.7,4.7-20.9,5.8c0,0,16-1.2,22-4.2
		C47.7,19.8,50,10.7,46,5.9c-2.6-3.2-9.6-2.3-16.1,2.3c-4.1,2.9-9.3,7.3-13.8,12.9C7.9,31.4,1.5,45.1,3.2,55.5
		c1.7,10.2,10.6,18,17.4,16.9c10-1.6,18-19.6,25.9-26.7c2.1-1.9,3-1.9,3-1.9c1.4,0.4,3.8,7.5,6.5,14.5c1.6,4.1,3.2,8.1,5.1,10.7
		c3.1,4.3,5.6,3.7,7.9,1.3c2-2,5-6.4,7.7-13C76.7,57.4,70.6,64.6,67.3,68.1z"/>
	<path class="st0" d="M54.9,28.5c0.3,1.5,0.5,3,0.6,3.5c0.1,1-0.4,1.2-0.8,1.1c-0.4-0.1-28.8-1.1-29.4-1.1c-1,0-2.5-0.1-3.6,1.7
		c-1.7,2.7-2.8,7.4-3.2,13.3c-0.2,4.2,0.8,8.4,3.3,12.6c0,0-2.8-14,1.1-21.3c0.9-1.7,1.5-2.2,2.5-2.2c3.1,0,21.5,0.6,23.2,0.7
		c2.8,0.1,7.4-0.4,8.7-0.7c1-0.3,2.8-0.1,2-3.3c-1-4.2-6.5-15.2-10.1-19.5c0,0,0,0.5,0.1,0.9C50.3,16.7,54.3,25.9,54.9,28.5z"/>
</g>
<g>
	<path class="st1" d="M102.2,6.4L102,8.2h-8.2v9.3h7.1v1.7h-7.1v10.2h8.6v1.8H91.7V6.4H102.2z"/>
	<path class="st1" d="M115.5,13.9l-0.9,1.2c-0.7-0.6-1.4-1-2-1.3s-1.3-0.4-2.1-0.4c-1,0-1.8,0.3-2.4,0.9c-0.6,0.6-0.9,1.4-0.9,2.4
		c0,0.9,0.3,1.6,0.8,2.1c0.5,0.5,1.5,1.1,3,1.6c1.8,0.6,3,1.4,3.8,2.2c0.8,0.8,1.2,2,1.2,3.4c0,1.7-0.5,3-1.6,4
		c-1.1,1-2.5,1.5-4.1,1.5c-2.2,0-4-0.8-5.7-2.4l1.1-1.2c0.7,0.6,1.4,1.1,2.1,1.4c0.7,0.3,1.5,0.5,2.4,0.5c1.1,0,2-0.3,2.7-1
		s1-1.6,1-2.7c0-0.7-0.1-1.4-0.4-1.8c-0.2-0.5-0.6-0.9-1.2-1.3c-0.6-0.4-1.4-0.8-2.5-1.2c-1.7-0.6-2.8-1.3-3.5-2.1
		c-0.7-0.8-1.1-1.8-1.1-3c0-1.4,0.5-2.6,1.5-3.5c1-0.9,2.3-1.4,3.8-1.4C112.4,11.9,114,12.6,115.5,13.9z"/>
	<path class="st1" d="M128.2,12.3c0.7,0.3,1.4,0.8,2.1,1.5l-1,1.2c-0.5-0.5-1.1-0.8-1.6-1.1c-0.5-0.2-1.1-0.3-1.8-0.3
		c-1.4,0-2.6,0.7-3.4,2c-0.8,1.3-1.2,3.4-1.2,6.2c0,5.3,1.5,8,4.6,8c1.2,0,2.4-0.5,3.5-1.5l1,1.2c-1.3,1.3-2.8,2-4.5,2
		c-2.1,0-3.8-0.8-4.9-2.4c-1.2-1.6-1.8-4-1.8-7.3c0-3.2,0.6-5.6,1.8-7.4c1.2-1.7,2.8-2.6,4.9-2.6C126.8,11.9,127.5,12,128.2,12.3z"
		/>
	<path class="st1" d="M144.9,31.1h-1.7l-0.1-3.1c-1.2,2.4-2.9,3.5-4.9,3.5c-1.4,0-2.5-0.5-3.3-1.4s-1.2-2.2-1.2-3.7V12.3h2v13.9
		c0,1.2,0.2,2.1,0.7,2.7c0.5,0.6,1.2,0.9,2.1,0.9c0.9,0,1.8-0.3,2.5-1c0.7-0.7,1.4-1.6,1.9-2.8V12.3h2V31.1z"/>
	<path class="st1" d="M162.1,22.5h-10.3c0.1,2.6,0.5,4.5,1.4,5.6c0.8,1.1,1.9,1.7,3.3,1.7c0.8,0,1.5-0.1,2.2-0.4
		c0.6-0.3,1.3-0.7,1.9-1.3l1,1.2c-0.7,0.7-1.5,1.3-2.4,1.7c-0.8,0.4-1.8,0.6-2.8,0.6c-2.1,0-3.7-0.8-4.9-2.5s-1.8-4-1.8-7.2
		c0-3.2,0.6-5.7,1.7-7.4c1.1-1.7,2.7-2.6,4.7-2.6c2,0,3.5,0.8,4.5,2.3c1,1.5,1.5,3.8,1.5,6.8C162.2,21.5,162.2,22,162.1,22.5z
		 M160.2,20.3c0-2.3-0.3-3.9-1-5.1c-0.7-1.1-1.7-1.7-3.1-1.7c-2.7,0-4.2,2.4-4.3,7.3h8.4V20.3z"/>
	<path class="st1" d="M167.5,30.6c-0.5-0.6-0.8-1.3-0.8-2.3V4.6l2-0.3v23.9c0,1,0.4,1.5,1.2,1.5c0.3,0,0.7-0.1,1-0.2l0.5,1.4
		c-0.6,0.3-1.2,0.5-1.9,0.5C168.7,31.5,168,31.2,167.5,30.6z"/>
	<path class="st1" d="M185.3,29.2c0.2,0.4,0.5,0.7,1,0.9l-0.4,1.4c-0.8-0.2-1.4-0.5-1.8-1c-0.4-0.5-0.7-1.1-0.8-2
		c-1.1,2-2.7,3-4.7,3c-1.5,0-2.7-0.5-3.6-1.5c-0.9-1-1.3-2.4-1.3-4.1c0-2,0.6-3.5,1.8-4.5c1.2-1,2.9-1.6,5.1-1.6h2.5v-2.2
		c0-1.4-0.3-2.4-0.8-3.1c-0.5-0.7-1.4-1-2.5-1c-1.3,0-2.8,0.3-4.3,1l-0.6-1.4c1.8-0.8,3.5-1.3,5.1-1.3c1.7,0,3,0.5,3.9,1.5
		c0.9,1,1.3,2.4,1.3,4.2v10C185,28.2,185.1,28.8,185.3,29.2z M183.1,26.4v-5.1h-2.3c-1.7,0-2.9,0.4-3.7,1.1
		c-0.8,0.7-1.2,1.9-1.2,3.4c0,1.3,0.3,2.3,0.8,3c0.5,0.7,1.3,1,2.3,1C180.7,29.9,182.1,28.7,183.1,26.4z"/>
	<path class="st1" d="M103.4,44.2c1.6,1.4,2.4,3.3,2.4,6c0,2.8-0.8,4.8-2.3,6.2c-1.6,1.4-3.8,2.1-6.6,2.1h-1.4v8.6h-5.1V42.2h6
		C99.5,42.2,101.9,42.8,103.4,44.2z M99.7,53.7c0.6-0.7,1-1.9,1-3.5c0-1.5-0.3-2.6-0.9-3.3c-0.6-0.7-1.6-1-3.1-1h-1.1v8.9h1
		C98,54.8,99,54.4,99.7,53.7z"/>
	<path class="st1" d="M119.8,50c1.4,1.7,2.1,4.2,2.1,7.6c0,3.2-0.7,5.7-2.1,7.5c-1.4,1.8-3.3,2.7-5.7,2.7c-2.4,0-4.3-0.9-5.7-2.6
		c-1.4-1.7-2.1-4.2-2.1-7.5c0-3.3,0.7-5.8,2.1-7.5c1.4-1.7,3.3-2.6,5.7-2.6C116.5,47.4,118.4,48.3,119.8,50z M112,52.6
		c-0.4,1-0.6,2.6-0.6,5c0,2.4,0.2,4,0.6,5c0.4,1,1.1,1.5,2.1,1.5s1.6-0.5,2.1-1.5c0.4-1,0.6-2.6,0.6-5c0-2.4-0.2-4-0.6-5
		c-0.4-1-1.1-1.4-2.1-1.4S112.5,51.6,112,52.6z"/>
	<path class="st1" d="M125.8,66.4c-0.8-0.8-1.2-2-1.2-3.4V40.4l4.9-0.5v22.9c0,0.6,0.3,1,0.8,1c0.2,0,0.5,0,0.7-0.1L132,67
		c-0.9,0.5-1.8,0.7-2.9,0.7C127.7,67.7,126.6,67.2,125.8,66.4z"/>
	<path class="st1" d="M138.3,39.1c0.5,0.6,0.8,1.2,0.8,2.1c0,0.8-0.3,1.5-0.8,2c-0.5,0.5-1.2,0.8-2.1,0.8c-0.9,0-1.6-0.3-2.1-0.8
		s-0.8-1.2-0.8-2c0-0.8,0.3-1.5,0.8-2.1c0.5-0.6,1.2-0.8,2.1-0.8C137.1,38.3,137.8,38.6,138.3,39.1z M138.7,48v19.1h-4.9V48H138.7z"
		/>
	<path class="st1" d="M152.5,66.2c-0.6,0.5-1.3,0.8-2,1.1c-0.8,0.2-1.5,0.4-2.3,0.4c-1.8,0-3.1-0.5-4-1.5c-0.9-1-1.3-2.3-1.3-4V51.5
		h-2.1V48h2.1v-4.2l4.9-0.6V48h3.6l-0.5,3.5h-3.1v10.6c0,1.1,0.5,1.7,1.4,1.7c0.3,0,0.6,0,0.8-0.1c0.2-0.1,0.5-0.2,0.9-0.4
		L152.5,66.2z"/>
	<path class="st1" d="M167.3,59h-9.8c0.1,1.9,0.4,3.2,1,3.9c0.6,0.7,1.4,1.1,2.4,1.1c0.7,0,1.3-0.1,1.9-0.4c0.6-0.3,1.2-0.6,1.9-1.2
		l2,2.7c-1.7,1.7-3.8,2.5-6.2,2.5c-2.6,0-4.5-0.9-5.9-2.6c-1.4-1.8-2.1-4.2-2.1-7.3c0-3.1,0.6-5.6,1.9-7.5s3.2-2.8,5.6-2.8
		c2.3,0,4.1,0.8,5.3,2.5c1.3,1.6,1.9,4,1.9,7.2C167.4,57.4,167.4,58,167.3,59z M162.2,37.6l1.9,3.6l-7.1,3.3l-1.3-2.3L162.2,37.6z
		 M162.7,55.7c0-1.7-0.2-3-0.6-3.8c-0.4-0.8-1-1.2-1.9-1.2c-0.8,0-1.4,0.4-1.9,1.2c-0.4,0.8-0.7,2.1-0.8,4.1h5.1V55.7z"/>
	<path class="st1" d="M182.7,49.7l-2.1,2.7c-1-0.8-2-1.2-3-1.2c-1,0-1.8,0.5-2.3,1.5c-0.5,1-0.8,2.6-0.8,5c0,2.3,0.3,3.9,0.8,4.8
		c0.5,0.9,1.3,1.4,2.3,1.4c0.5,0,1-0.1,1.4-0.3s0.9-0.5,1.4-0.9l2.2,2.8c-1.5,1.5-3.3,2.2-5.3,2.2c-2.5,0-4.5-0.8-5.9-2.5
		c-1.4-1.7-2.1-4.2-2.1-7.5c0-2.1,0.3-3.9,1-5.5c0.6-1.5,1.6-2.7,2.8-3.5c1.2-0.8,2.6-1.2,4.2-1.2C179.4,47.4,181.2,48.2,182.7,49.7
		z"/>
	<path class="st1" d="M197.1,48.9c0.8,1,1.2,2.3,1.2,4v14.2h-4.9V53.4c0-0.8-0.1-1.4-0.3-1.7c-0.2-0.3-0.5-0.5-1-0.5
		c-0.9,0-1.8,0.9-2.7,2.6v13.3h-4.9V48h4.3l0.4,2.4c0.6-1,1.3-1.7,2.1-2.2c0.7-0.5,1.6-0.8,2.6-0.8
		C195.2,47.4,196.3,47.9,197.1,48.9z"/>
	<path class="st1" d="M206.4,39.1c0.5,0.6,0.8,1.2,0.8,2.1c0,0.8-0.3,1.5-0.8,2c-0.5,0.5-1.2,0.8-2.1,0.8c-0.9,0-1.6-0.3-2.1-0.8
		s-0.8-1.2-0.8-2c0-0.8,0.3-1.5,0.8-2.1c0.5-0.6,1.2-0.8,2.1-0.8C205.1,38.3,205.8,38.6,206.4,39.1z M206.7,48v19.1h-4.9V48H206.7z"
		/>
	<path class="st1" d="M222.9,49.7l-2.1,2.7c-1-0.8-2-1.2-3-1.2c-1,0-1.8,0.5-2.3,1.5c-0.5,1-0.8,2.6-0.8,5c0,2.3,0.3,3.9,0.8,4.8
		c0.5,0.9,1.3,1.4,2.3,1.4c0.5,0,1-0.1,1.4-0.3s0.9-0.5,1.4-0.9l2.2,2.8c-1.5,1.5-3.3,2.2-5.3,2.2c-2.5,0-4.5-0.8-5.9-2.5
		c-1.4-1.7-2.1-4.2-2.1-7.5c0-2.1,0.3-3.9,1-5.5c0.6-1.5,1.6-2.7,2.8-3.5c1.2-0.8,2.6-1.2,4.2-1.2C219.7,47.4,221.4,48.2,222.9,49.7
		z"/>
	<path class="st1" d="M237.3,63.6c0.2,0.3,0.4,0.5,0.8,0.7l-1,3.2c-1-0.1-1.8-0.4-2.4-0.8c-0.6-0.4-1.1-1-1.4-1.9
		c-1.1,1.8-2.7,2.7-4.7,2.7c-1.6,0-2.8-0.5-3.8-1.6s-1.4-2.5-1.4-4.3c0-2.1,0.6-3.7,1.9-4.8c1.3-1.1,3.2-1.6,5.6-1.6h1.3v-1.2
		c0-1.2-0.2-2-0.6-2.5c-0.4-0.5-1-0.7-2-0.7c-1.1,0-2.5,0.3-4.1,0.9l-1.1-3.1c1-0.5,2-0.8,3.1-1c1.1-0.2,2.1-0.4,3.1-0.4
		c4.3,0,6.4,2.2,6.4,6.5v8.3C237.1,62.9,237.2,63.3,237.3,63.6z M232.3,62v-3.9h-0.9c-1.1,0-1.9,0.3-2.4,0.8
		c-0.5,0.5-0.8,1.3-0.8,2.4c0,0.9,0.2,1.6,0.5,2.1c0.3,0.5,0.7,0.7,1.3,0.7C231,64.1,231.8,63.4,232.3,62z"/>
	<path class="st1" d="M258.4,42.4c1.2,0.5,2.2,1.3,3.1,2.3l-2.3,2.7c-1.4-1.3-2.8-2-4.3-2c-0.9,0-1.5,0.3-2.1,0.8
		c-0.5,0.5-0.8,1.2-0.8,2.1c0,0.8,0.3,1.5,0.8,2.1c0.6,0.6,1.6,1.1,3.1,1.8c1.4,0.6,2.5,1.2,3.4,1.8c0.9,0.6,1.5,1.5,2,2.4
		c0.5,1,0.7,2.1,0.7,3.6c0,1.5-0.3,2.8-1,4c-0.7,1.2-1.6,2.1-2.9,2.8c-1.2,0.7-2.7,1-4.4,1c-1.7,0-3.2-0.3-4.4-0.9
		c-1.3-0.6-2.4-1.5-3.4-2.5l2.5-2.7c0.8,0.8,1.7,1.4,2.5,1.7c0.8,0.4,1.7,0.6,2.6,0.6c1.1,0,1.9-0.3,2.4-1c0.6-0.6,0.8-1.5,0.8-2.6
		c0-1-0.3-1.8-0.8-2.4c-0.5-0.6-1.5-1.2-2.9-1.8c-2.3-0.9-3.9-2-4.8-3.1c-1-1.2-1.4-2.6-1.4-4.4c0-1.4,0.3-2.6,1-3.6
		c0.6-1.1,1.5-1.9,2.7-2.5c1.2-0.6,2.4-0.9,3.9-0.9C256,41.6,257.3,41.9,258.4,42.4z"/>
	<path class="st1" d="M278.2,67.1h-4.3l-0.2-2.3c-1.2,1.9-2.7,2.9-4.6,2.9c-1.4,0-2.5-0.5-3.3-1.5c-0.8-1-1.2-2.3-1.2-3.9V48h4.9v14
		c0,1.3,0.4,2,1.3,2c0.9,0,1.7-0.8,2.4-2.3V48h4.9V67.1z"/>
	<path class="st1" d="M295.3,50c1,1.7,1.5,4.2,1.5,7.5c0,2.1-0.3,3.9-0.8,5.4c-0.5,1.5-1.2,2.7-2.2,3.5s-2,1.2-3.3,1.2
		c-1.5,0-2.8-0.7-3.8-2v8.8l-4.9,0.5V48h4.4l0.2,2.2c0.6-0.9,1.3-1.6,2-2.1c0.8-0.4,1.6-0.7,2.6-0.7C292.9,47.4,294.4,48.3,295.3,50
		z M291.8,57.5c0-2.4-0.2-4.1-0.6-5c-0.4-0.9-1-1.4-1.7-1.4c-1,0-1.9,0.7-2.7,2.2v9c0.7,1.1,1.5,1.7,2.4,1.7
		C290.9,64,291.8,61.8,291.8,57.5z"/>
	<path class="st1" d="M313.7,59h-9.8c0.1,1.9,0.4,3.2,1,3.9c0.6,0.7,1.4,1.1,2.4,1.1c0.7,0,1.3-0.1,1.9-0.4c0.6-0.3,1.2-0.6,1.9-1.2
		l2,2.7c-1.7,1.7-3.8,2.5-6.2,2.5c-2.6,0-4.5-0.9-5.9-2.6c-1.4-1.8-2.1-4.2-2.1-7.3c0-3.1,0.6-5.6,1.9-7.5s3.2-2.8,5.6-2.8
		c2.3,0,4.1,0.8,5.3,2.5c1.3,1.6,1.9,4,1.9,7.2C313.8,57.4,313.7,58,313.7,59z M309,55.7c0-1.7-0.2-3-0.6-3.8
		c-0.4-0.8-1-1.2-1.9-1.2c-0.8,0-1.4,0.4-1.9,1.2c-0.4,0.8-0.7,2.1-0.8,4.1h5.1V55.7z"/>
	<path class="st1" d="M326.8,47.7l-0.8,4.7c-0.4-0.1-0.9-0.2-1.3-0.2c-0.9,0-1.6,0.4-2.1,1.1c-0.5,0.8-0.9,1.9-1.2,3.4v10.3h-4.9V48
		h4.3l0.4,3.2c0.9-2.5,2.3-3.7,4.2-3.7C325.9,47.5,326.4,47.6,326.8,47.7z"/>
	<path class="st1" d="M333,39.1c0.5,0.6,0.8,1.2,0.8,2.1c0,0.8-0.3,1.5-0.8,2c-0.5,0.5-1.2,0.8-2.1,0.8c-0.9,0-1.6-0.3-2.1-0.8
		c-0.5-0.5-0.8-1.2-0.8-2c0-0.8,0.3-1.5,0.8-2.1c0.5-0.6,1.2-0.8,2.1-0.8C331.8,38.3,332.5,38.6,333,39.1z M333.4,48v19.1h-4.9V48
		H333.4z"/>
	<path class="st1" d="M349.9,50c1.4,1.7,2.1,4.2,2.1,7.6c0,3.2-0.7,5.7-2.1,7.5c-1.4,1.8-3.3,2.7-5.7,2.7c-2.4,0-4.3-0.9-5.7-2.6
		c-1.4-1.7-2.1-4.2-2.1-7.5c0-3.3,0.7-5.8,2.1-7.5c1.4-1.7,3.3-2.6,5.7-2.6C346.6,47.4,348.5,48.3,349.9,50z M342.1,52.6
		c-0.4,1-0.6,2.6-0.6,5c0,2.4,0.2,4,0.6,5c0.4,1,1.1,1.5,2.1,1.5c0.9,0,1.6-0.5,2.1-1.5c0.4-1,0.6-2.6,0.6-5c0-2.4-0.2-4-0.6-5
		c-0.4-1-1.1-1.4-2.1-1.4C343.2,51.1,342.5,51.6,342.1,52.6z"/>
	<path class="st1" d="M365.1,47.7l-0.8,4.7c-0.4-0.1-0.9-0.2-1.3-0.2c-0.9,0-1.6,0.4-2.1,1.1c-0.5,0.8-0.9,1.9-1.2,3.4v10.3h-4.9V48
		h4.3l0.4,3.2c0.9-2.5,2.3-3.7,4.2-3.7C364.2,47.5,364.7,47.6,365.1,47.7z"/>
</g>
<g>
	<path class="st1" d="M67.3,65.9c-1.1,1.2-2.2,0.9-3.1-1c-1.3-2.8-2.7-6.5-4.1-10.3c-3-6.2-4.3-18.7-10.2-18.7
		c-4,0-9.6,7.2-10.1,7.9c-3.9,5.3-11.3,16.3-17.4,20c-2,1.2-4.2,0.8-5.4,0.3c-2-0.8-5-3.7-6.6-6.7c-5.5-10.1,3.1-28.7,9.7-38.3
		c4.9-6.5,9.2-10.7,12.9-12.3c5.7-2,10.2-3.7,12.4,1.1c0.9,2.1-0.2,7.3-5.2,11.2C36.6,22,24.6,23.9,19.4,25c0,0,16-1.2,22-4.2
		C47.7,17.6,50,8.5,46,3.7C43.4,0.5,36.4,1.4,29.8,6c-4.1,2.9-9.3,7.3-13.8,12.9C7.9,29.2,1.5,42.9,3.2,53.3
		c1.7,10.2,10.6,18,17.4,16.9c10-1.6,18-19.6,25.9-26.7c2.1-1.9,3-1.9,3-1.9c1.4,0.4,3.8,7.5,6.5,14.5c1.6,4.1,3.2,8.1,5.1,10.7
		c3.1,4.3,5.6,3.7,7.9,1.3c2-2,5-6.4,7.7-13C76.7,55.2,70.6,62.4,67.3,65.9z"/>
	<path class="st1" d="M54.9,26.3c0.3,1.5,0.5,3,0.6,3.5c0.1,1-0.4,1.2-0.8,1.1c-0.4-0.1-28.8-1.1-29.4-1.1c-1,0-2.5-0.1-3.6,1.7
		c-1.7,2.7-2.8,7.4-3.2,13.3c-0.2,4.2,0.8,8.4,3.3,12.6c0,0-2.8-14,1.1-21.3c0.9-1.7,1.5-2.2,2.5-2.2c3.1,0,21.5,0.6,23.2,0.7
		c2.8,0.1,7.4-0.4,8.7-0.7c1-0.3,2.8-0.1,2-3.3c-1-4.2-6.5-15.2-10.1-19.5c0,0,0,0.5,0.1,0.9C50.3,14.5,54.3,23.7,54.9,26.3z"/>
</g>
</svg>
