<svg xmlns="http://www.w3.org/2000/svg" viewBox="0 0 803.66 354.45"><defs><style>.cls-1{fill:#1d1d1b;}.cls-2{fill:#be152b;fill-rule:evenodd;}</style></defs><g id="Capa_2" data-name="Capa 2"><g id="DISEÑO"><path class="cls-1" d="M310.77,323.21a20.74,20.74,0,0,0,11-9h.13v28.92c0,2.93-.21,5.29,2.58,7.08v.16H313.71v-.16c3.16-1.54,3-3.94,3-7.08V323.37h-6Z"/><path class="cls-1" d="M352.06,322.85h-.15c-1.91-2.05-5.43-2.2-8.16-2.2l-5.59.31-.45,8.46a18.16,18.16,0,0,1,5-.67c6.71,0,12.41,3.8,12.41,11,0,6.85-6.57,11.48-15.23,11.48a29.33,29.33,0,0,1-6.62-.82l-2.4-5.25a19.25,19.25,0,0,0,9,2.06c4.73,0,9.43-2.15,9.43-7.54,0-4.92-4.7-6.92-8.93-6.92a20.55,20.55,0,0,0-7.83,1.69l1.12-17.79h18.46Z"/><path class="cls-1" d="M359.84,333.62c0-9.47,4.67-17.8,13.7-17.8,9.48,0,13.53,9.19,13.53,17.5s-4.1,17.9-13.74,17.9C365.28,351.11,359.84,343.11,359.84,333.62Zm5.5-.51c0,5.18,1.68,14.1,8.3,14.1,5.08,0,7.95-6.25,7.95-13.48s-3.09-13.81-8.26-13.9C366.87,319.83,365.34,328.14,365.34,333.11Z"/><path class="cls-1" d="M413.59,322.85h-.16c-1.88-2.05-5.43-2.2-8.15-2.2l-5.59.31-.46,8.46a18.24,18.24,0,0,1,5-.66c6.72,0,12.39,3.79,12.39,11,0,6.85-6.56,11.48-15.24,11.48a29.14,29.14,0,0,1-6.59-.82l-2.42-5.23a19.52,19.52,0,0,0,9,2c4.71,0,9.43-2.14,9.43-7.54,0-4.92-4.72-6.92-8.92-6.92a20.64,20.64,0,0,0-7.85,1.69l1.12-17.79h18.47Z"/><path class="cls-2" d="M425.41,236.74l27.15.17v8.83s-2.36-3.19-5.61-3.19-11.79.53-11.79.53v14.29h11.73l1.14-.26v7.95l-2.37-1.8-10.36,0V281a24,24,0,0,0,10,1.85c6.27,0,14.21-4.27,14.21-4.27l-.61,1.45-2.9,8.23H423.67s3.55-2.34,3.5-5,0-41.29,0-41.29.19-4.19-2.85-4.19C425,236.74,425.41,236.74,425.41,236.74Z"/><path class="cls-2" d="M356.27,260.3c0-14.28-11.55-20.79-18.2-22.64-5.57-1.47-12.59-1.18-16.1-1.15l-10.24-.08s-.38,0-1.06,1a2.39,2.39,0,0,1,1.91.86c.15.29.33.58.47.81a5,5,0,0,1,.36,1.54V282c-.35,2.44-3.35,4.39-3.35,4.39H331S356.27,287.56,356.27,260.3Zm-23,19.92h-9.47a14.34,14.34,0,0,1-2.43-.85v-17.2h11.2l1.11.53v-6.91l-1.11.64H321.18V242.57s12-.63,16.89,1.45,10.44,7.13,10.44,16.91C348.51,277.79,333.25,280.22,333.25,280.22Z"/><path class="cls-2" d="M653.4,288.7h15.41c-3.13-.46-5.65-6.12-5.65-6.12l-18-44.75H633.34c3,1.26.61,7.29.61,7.29S622.27,273.77,619.89,280s-6.19,8.3-6.19,8.3l-.26.32h13.75a8.43,8.43,0,0,1-1.87-1.85c-1.15-1.69-.18-4.74-.18-4.74l5-12.54h19.73s4,11.36,5.39,14.79A3.07,3.07,0,0,1,653.4,288.7Zm-21.76-23.92,8.24-20.25,7.56,20.26Z"/><path class="cls-2" d="M459.23,236.77h10.86v3.36l13.18,35.08.92,3,1-.74,12.1-32.69s1.46-4.26.17-5.94a15.19,15.19,0,0,1-1.45-1.95h10.62l-.73,3.17-19.51,49.92s-6.72-1.62-9.77-10.4c-2.73-7.9-13.31-35.73-13.31-35.73s-1.36-2.74-2.62-4.83C460.14,238,459.17,238,459.23,236.77Z"/><path class="cls-2" d="M511.71,236.71h13.55l.64.64s-2.93,2-2.93,4c0,1.56,0,42.76,0,42.76s.69,2.48,1.53,2.91a3.46,3.46,0,0,1,1.32,1.14H512v-.84s2.71-1.16,2.71-3.57-.36-41.81-.36-42.82c0-2.27-2.63-2.94-2.63-2.94Z"/><path class="cls-2" d="M556.35,282.88c-5.06,0-8.46-.57-9.57-1,0-9.22,0-39.34,0-40.67,0-2,2.92-4,2.92-4l0-.37H535v.44c0,.07,2.09.67,2.81,2.06a6.27,6.27,0,0,1,.41,1.44c0,.3,0,3.56.07,8.19,0,11.24,0,32.28,0,34.27,0,3.22-3.5,5-3.5,5h32.33l2.9-8.22.6-1.45A29.18,29.18,0,0,1,556.35,282.88Z"/><path class="cls-2" d="M597.34,282.88c-5.08,0-8.48-.57-9.58-1,0-9.22,0-39.34,0-40.67,0-2,2.94-4,2.94-4v-.37H575.94v.44c0,.07,2.09.67,2.79,2.06a5.84,5.84,0,0,1,.42,1.44c0,.3,0,3.56.05,8.19,0,11.24,0,32.28,0,34.27,0,3.22-3.49,5-3.49,5h32.32l2.91-8.22.62-1.45A29.29,29.29,0,0,1,597.34,282.88Z"/><path class="cls-2" d="M412.55,240.66v-9.29a55.3,55.3,0,0,0-12.66-2c-5.65,0-22,1-22,16.38,0,16,30.17,14.16,30.17,28.71,0,4.47-6.64,8.53-13.16,8.53-9.24,0-18.36-6.87-18.36-6.87l2.21,10.3a43.13,43.13,0,0,0,14.62,2.88c7.7,0,24.06-4.33,24.06-17.66,0-17.94-30-15.7-30-28,0-5.22,4.23-8.1,10.93-8.1C406.18,235.47,412.55,240.66,412.55,240.66Z"/><path class="cls-2" d="M310.06,151.94h15.29v.64s-3.22.15-3.22,4.64v36s1,10.64,12.92,10.64c14.52,0,15.7-9,15.7-9l0-36.67s-.52-6-3.28-6c0-.57.25-.24.25-.24h15.05v.54a3.57,3.57,0,0,0-3,3.69v47.18a5.42,5.42,0,0,0,2,4.73c1.69,1.22,1.33,1.34,1.33,1.34h-12.2V204h-1.16s-4.84,6.58-15.8,6.58c-12.46,0-20.38-7.06-20.38-17.35V157.08S312.35,152.64,310.06,151.94Z"/><path class="cls-2" d="M370.85,159v-.56H381.5l30.42,39.07V163.33s-1.27-4-3.12-4.23v-.71h12.63v.6a5,5,0,0,0-3.32,5.08c0,4.18-.51,47.62-.51,47.62h-1.14s-4.15-1.67-14.22-14.19S380.63,170,380.63,170l-.36-.27v35s1.75,4.35,3.65,4.35v.66H370.4v-.84s3.29-2.34,3.29-4.25.36-40.08.36-40.08S373.58,160.05,370.85,159Z"/><path class="cls-2" d="M429.48,158.34l13.41.21V159s-2.65.62-2.65,3.16V205s.25,3,2.48,3.89v.82H429.41l0-.85a4.47,4.47,0,0,0,2.82-4.13V162.37a6.68,6.68,0,0,0-2.76-3.33A1.12,1.12,0,0,1,429.48,158.34Z"/><path class="cls-2" d="M631.32,158.33l13.39.21v.5a3.37,3.37,0,0,0-2.63,3.15V205s.27,3,2.48,3.88v.82H631.23l.06-.85a4.47,4.47,0,0,0,2.83-4.13V162.37a6.74,6.74,0,0,0-2.76-3.33A1.32,1.32,0,0,1,631.32,158.33Z"/><path class="cls-2" d="M447.44,158.4h10.71a11.19,11.19,0,0,0,.34,3.16c.4,1.41,14.43,38.17,14.43,38.17l13.16-34.23s.07-4.54-1.16-5.5-1.32-1.65-1.32-1.65h11.62L474,212.45s-5.56-1.93-8.56-8.91c-2.41-5.59-15.2-40.37-15.2-40.37l-2.83-3.81Z"/><path class="cls-2" d="M500.8,158.6l27.19.18v8.82s-2.38-3.41-5.61-3.41l-11.82,0v15h11.72l1.15-.28v8l-2.36-1.8H510.7L510.64,203a24.41,24.41,0,0,0,10,1.83c6.28,0,14.29-4.33,14.29-4.33l-3.52,9.68H499.1s3.52-2.32,3.48-5,0-41.31,0-41.31.21-4.14-2.87-4.14C500.44,158.62,500.8,158.6,500.8,158.6Z"/><path class="cls-2" d="M540.81,159.18s14-.49,17.64-.49,16,2.28,16,13.29c0,8.71-11.71,12.54-11.71,12.54l-.41,1s10.06,14,14.94,18.15a78.49,78.49,0,0,0,8.56,6.39H575.77s-2.54.3-11.93-10.68-10.87-16-10.87-16,12.95-1.71,12.95-11c0-6.67-6.24-8.66-6.24-8.66s-8.36-1.34-8.36.37v42s1.64,3.79,3,3.79H540s3.15-.8,3.15-9V163.4S542.05,159.72,540.81,159.18Z"/><path class="cls-2" d="M671.39,159.2H652.15l2.92,3.05,0,44-2.88,4h18.29c12.53,0,28.8-5.39,28.8-26.73C699.26,161.27,677.54,159.2,671.39,159.2Zm2.29,44.89h-10.6L663,165.22s28.24-5.55,28.24,19C691.25,203.83,673.68,204.09,673.68,204.09Z"/><path class="cls-2" d="M738.14,210.16h15.39c-3.16-.46-5.65-6.13-5.65-6.13l-18-44.72H718.06c3,1.24.63,7.26.63,7.26s-11.69,28.66-14.07,34.9-6.18,8.31-6.18,8.31l-.29.31H711.9a9.24,9.24,0,0,1-1.86-1.87c-1.14-1.66-.18-4.73-.18-4.73l5-12.53h19.73s4,11.37,5.41,14.79A3.09,3.09,0,0,1,738.14,210.16Zm-21.79-23.94L724.61,166l7.55,20.24Z"/><path class="cls-2" d="M619.32,167.41v-8.34a49.62,49.62,0,0,0-11.39-1.83c-5.08,0-19.75.94-19.75,14.74,0,14.41,27.17,12.74,27.17,25.81,0,4-6,7.67-11.84,7.67-8.31,0-16.54-6.18-16.54-6.18l2,9.25a39,39,0,0,0,13.18,2.59c9.81,0,21.63-3.9,21.63-15.86,0-16.14-27-14.14-27-25.24,0-4.7,3.79-7.26,9.83-7.26C613.59,162.76,619.32,167.41,619.32,167.41Z"/><path class="cls-2" d="M775.83,159.2H756.56l2.92,3.05v44l-2.92,4h18.31c12.51,0,28.79-5.39,28.79-26.73C803.69,161.27,781.94,159.2,775.83,159.2Zm2.27,44.89H767.5l-.08-38.87s28.23-5.55,28.23,19C795.65,203.83,778.1,204.09,778.1,204.09Z"/><path class="cls-1" d="M228.88,280.29a16.9,16.9,0,0,0,2-.79c-.67.28-1.36.55-2,.79Z"/><path class="cls-1" d="M223.41,238.1c-19.21-6.76-33.27-15.31-33.27-38.7.87-8.78,3.66-15.13,5.28-16.86.92-1-1.82-.07-4.44,3.13a4.86,4.86,0,0,1,1.2-2.44c5.14-5.57,7.95-9,7.95-10.1,1.34-2.16.37-1.64-1.63-.55-3.23,2.67-2.59,1.56-4.73,4.94-.38.6-1.19-.14-1.6.45-3.95,2.85-5.71,10.56-3.85,12.14A19,19,0,0,0,187,194.8c-.63,4.09-1,7.63-1.39,10-1.41-8.37-2.73-16.87-3.67-23.26,0-.44-.53-2.2-.59-2.63a12.14,12.14,0,0,0-.46-3.43,4.51,4.51,0,0,1-.45-2.65c.7-4.05-.42-6.65-.86-9.32-.07-.47-.61-.38-.73.45-.18,1.38-.24,4.17-.65,5-.12.22-.84-4.33-1.23-5-.11-.2-.22-.7-.44-1.17a3.77,3.77,0,0,0-.35-.87,2.58,2.58,0,0,1-.39-.8c-.11-.27-.06-.69-.16-1s-.47-.71-.65-1.13c-1-2.37-1.86-4.74-2.24-4.31s.67,5.11,1.34,6.58a58.39,58.39,0,0,1,3.91,13c.14.69.62,3,.76,3.64s.22,1.69.36,2.45.21,1.81.34,2.41c.27,1.54.22,2.24.42,3.14a15.06,15.06,0,0,0,.71,3.2c.62,1.54.62,4.85,0,3.85a26.16,26.16,0,0,0-3.87-4.54c-.31-.18-.63-.41-1-.62-2.73-1.9-5.79-4.63-5.79-2.67,4.49,2.27,9.27,10.66,10.92,15.57a62.52,62.52,0,0,0,.25,6.82c.11,1.3-1.06,2-.79,2.88.21.64,1.73,2,2,2.53.82,1.48,2.11,2.41,3.9,4.31a8.93,8.93,0,0,0,.88,1.78c0,4.92,30.55,16.66,11.41,14.51-4.07-1.9-10.18-5.65-11.94-5.65,0,4,14.81,11.85,24.21,14.32,1.5-1.53-9.65-4.45-7-4.45C205.79,237.65,223.41,239.78,223.41,238.1Z"/><path class="cls-1" d="M175,66.21c.33.63.68,1.19.95,1.75C180.11,67.25,175,63.76,175,66.21Z"/><path class="cls-1" d="M179.42,63c.28.22.54-.07.7-.15a.33.33,0,0,1,.32.08c.13.11.29,0,.41-.05,4-2.37-4-3.17-1.73-.17A1,1,0,0,0,179.42,63Z"/><path class="cls-1" d="M144.13,198.51c1.05-.7.94-.57,1.45-1.41s.61-1.29-.26-2.24c-2.68-2.69-5.16-5.42-10.83-18.17-1.81-4.07-2.61,6.89-1.29,13.77,2,10.49,3,12.43,5,14.63,3.37,3.79,8.71,10.44,8.71,10.44s3.39,3.83,2.4-.53-4.29-7.43-7.23-9.45-1.76-4.2-1.76-4.2S141.79,200.17,144.13,198.51Z"/><path class="cls-1" d="M148.72,226.11c-.25-1.78-1.76-6.82-2.91-8.22s-10.56-11.32-11.71-12.74,1.54,8,1.54,8l.21.33c-.38.54-.28,2.46-.45,2.49,1.35,3.46,9.16,6.2,11.59,9.69C148,226.42,148.78,226.53,148.72,226.11Z"/><path class="cls-1" d="M145.66,227.17c-1.89-1.66-5.44-4.09-7-4.09a10.21,10.21,0,0,0-3.91,1.35s-1.47,7.19-1.47,9.62-.31,7.45,1.57,5.65,2.73,1.39,4.33,1.39,0,2.93,4.89-2.45a16.62,16.62,0,0,0,3.81-6.58S148.62,229.79,145.66,227.17Z"/><path class="cls-1" d="M129.13,246.55c-5.49,1.77-5.68,2-9.34,2.61-6.89,1.05-4.61-10.91-8.08-6.92s-5.09,6.5-5.07,12c0,3-3.23,4,.8,6.87s5.44-.14,11.12-.37,4.24-1.71,9.07-2.75,7.91-3.19,9.07-8.72,3.76-4.9-.36-6.07S134.24,244.9,129.13,246.55Z"/><path class="cls-1" d="M238.67,238.39,245.2,242c1,.58,5.23,3.7,1.83,0-3.23-3.49-18.06-10.58-21.42-19.81-.58-1.65-3.82-3.83-3.82-3.83.2-2.13-.68-2.2-.56-3.85l-.18-1,.25-2.77c.42-4.84,8.73-15,9.75-18.88.16-.58.62-1.76-1.93-2-7.71-.61-11.8-5.78-13.75-7.54-.38-.33-.65.19-.63.79.06,2.85-.07,7-.09,9.58-.31-.12-.64-.22-1-.33-1.69-.5-6.86-.58-9.47-.58a14.53,14.53,0,0,0-7,2.17c-1.32,1-7.12,3.2,1.83,1.13a30.16,30.16,0,0,1,6.36-.83,23.09,23.09,0,0,1,5.43,1.27c1.59.46,3,1,4.18,1.35.66,3.15,2,6.3,2.82,10.08a61.43,61.43,0,0,1,1.21,9.7s3.59,6.53,5.62,10.88c1,2,2.83,3.81,5.78,5.83a1,1,0,0,0-.18.56c-.08.61-.65-.62-3.07-1-1.17-.2-2.32-.27-3-.47a12.75,12.75,0,0,1-2.21-.74c-1.84-.85-3.08-1.32-5.19-2.1-4.41-2.58-7.07-2.27-8.94-4-3.36-2.55-7-6.43-7.89-5.23a6.19,6.19,0,0,0,1.78,2.55c.3.32.57.33,1,.68s.54.93.83,1.17c.44.38,1.32.58,2,1.11s.92.56,1.46,1c.21.15.55.74.74.89a30.7,30.7,0,0,0,3.43,2.25c-.06.2,1.41,1.1,2,1.24a1.88,1.88,0,0,0,1.23,1,11.43,11.43,0,0,0,3.64,1.66,4.44,4.44,0,0,0,2.09.87c1,.69,3.09.74,4,1a30.58,30.58,0,0,0,8.58,2.93c2.33,1,6.47,1.17,5.87-.17A.18.18,0,0,0,238.67,238.39Z"/><path class="cls-1" d="M209.46,162.79c.11,2.44.48,4.87,1.57,6.27-.08-.19-.14-.38-.22-.57A50.34,50.34,0,0,1,209.46,162.79Z"/><path class="cls-1" d="M158.74,313.63l3.1-.18s2.51.88,4.85,1.75,7.94,5.18,8.7,5.85,4.63,6.16,5.39,6.94a12.93,12.93,0,0,1,2.54,4.42c.8,2.1.09,4.09-1.16,4.48-4.06,1.37-5.13-1.39-5.22-2.28s-.33-1,.53-2.43,2.87.58,2.55-1.32-2.63-1.78-2.63-1.78-5,.81-4.84,5.75,3.15,6.43,6.24,7.34,6.69-.45,7.85-2.67c4.6-8.85-1.3-17.57-1.44-17.91-2.4-6.19-10-12.76-10-12.76a14.91,14.91,0,0,1-1.55-2.46c-.3-.88,10.42,7.13,13,12.73,1.54,3.24,2.14,4.79,2.26,7.18s-.12,2.84.94,3.47,1.24-2.2,1.89-2.2,1.83-1.45,1.83-1.45a31.26,31.26,0,0,0,.6-6.27,29.11,29.11,0,0,0-1.72-9.78c-.86-2.1.8-.65.8-.65s1.93-.47,3.8,7.68-1.36,12.42-.91,12.92,1.79-1.62,2.45-2.49.83-2.2,1.14-4.53a65,65,0,0,1,2.37-9.63c.42-.78,1,2.69.7,8.18s-1.16,4.9-2.14,8.45c-.62,2.17-2.34,6.76,2.74-.33,2-2.84,3.43-9.43,3.58-10.52.33-2.4,1.68-5,2.56-4.69s-.53,3-.84,4.89-2.31,7.79-2.67,8.78a28.48,28.48,0,0,1-1.42,3.2c-.35.67,4.46.39,12.11-19.18.28-.71,1.94-2.77,2-3.53.19-1.82.16-2-.5-2.56-.37-.33-.47-1-1.62-1a4.28,4.28,0,0,0-2.15.2c-1.21.32-.55,2.09-1.53,2.89s-6.37,1.16-7.66.81a25.45,25.45,0,0,0-3.42-.55c-.9-.11-.65-1.41-.65-2.33s-.34-1.86-1.09-1.86-2.32-3.27-3.76-3.51-2.84-.93-3.48-.93a7,7,0,0,1-4.4-2.49c-1.45-1.8-8,0-9.84-.14-1.15-.08-6.71,2.73-8.14,2.74-.48,0-1.61.69-2.53.69-.42,0-1.32.81-1.72.8-2.32-.07-3.27.18-2.88-.22,1.11-1.12,7.83-2.56,8.61-3,7.42-4.6,7.38-1.74,8.33-3.25.61-1.34,4.93-1.07,4.5-2.41s-5.75-.51-6.85-.51.05-1-7.62,2.22c-1.24.53-4.56,4-8,3.11-1.31-.32-8.77,1-10.43,2.71-1.43,2.25-1.92,1.37-2,2.78s0,2.21.32,2.31,3.77,0,3.77,0,4.32,1.46,4.6,5c.13,1.73-1.61,1.32-1.61,1.32s-1-1.46-.67-2.1-.33-1.22-1.42-.79-.9,2.89-.9,2.89S154.23,314.57,158.74,313.63Z"/><path class="cls-1" d="M173,342.87s-3.18-2.05-3.45-5.14-2.43-2.21-2.43-2.21-.91,4.87,2.16,7.54c4,3.5,8.28,4.67,7.48,3S173,342.87,173,342.87Z"/><path class="cls-1" d="M168.2,331.24c-2.17-.84-9.4-2.26-9.4-2.26s1,3.65,4,3.65a49,49,0,0,1,6.42.55S170.3,332.07,168.2,331.24Z"/><path class="cls-1" d="M171.58,322.82c-.93-.76-1.6-1.64-2.36-2.23a22.41,22.41,0,0,0-6.55-3.78,2.17,2.17,0,0,0-1.85.48c-.37.32-.75.57-.89.89-.39.88,1.24,1.69,1.64,1.85a16.3,16.3,0,0,1,3.64,1.49,20.1,20.1,0,0,1,3.64,2,72.63,72.63,0,0,0,6.43,4.77S177.47,327.55,171.58,322.82Z"/><path class="cls-1" d="M170.58,331s.54.27,2.41-.57-5.89-4.77-8-6.44-7-2.55-7-2.55-1.09-.26-1.09,2A6.25,6.25,0,0,0,158,327a15.85,15.85,0,0,1,6.45,1.27C167.36,329.69,170.58,331,170.58,331Z"/><path class="cls-1" d="M231,313.63c.75-2.19,8.35-13.69,7.8-16.07s-3.59-1.18-4.41-1.6-.6.39-2.15.39-2.3-2.73-3.4-1.49-3.11-.24-3.95,0-1.68.17-.89,1.85c.11.23-3.92,3.14-4.31,4.74s3.84,4.75,3.4,6a142.59,142.59,0,0,1-7,16.75c-1,1.77-3.6,4.77-4.26,6.07a9.92,9.92,0,0,0-.63,3c0,.5,4.44,1.52,6.18,3.7a4.37,4.37,0,0,0,1.24,1.25,13.29,13.29,0,0,1,1.39,2c1.4,2.87,2.61,5.76,4.93,5.78a4.74,4.74,0,0,0,4.05-3.41c.47-1.92.63-4-2-5.62a3.47,3.47,0,0,0-4.52.75s-.74,1.2.15,2,.42-.9,1.45-.93,1,.16,1.46.48,1.57,1.78-.39,3.49c-.58.54-1.85.3-2.72-.8a6.5,6.5,0,0,1-1-3.38,6.7,6.7,0,0,0-.2-1.24c1.07-.47,1.95-1.27,2.95-1.59,1.26-.45,3.29-.82,4.28-.42,3,1.25,3.66,1.61,4.93,3s1.59-3.68.55-4.25-2.78-.33-3.82-2.06-2.26-4.34-3.38-4.93a8.57,8.57,0,0,0-3.43-1.06c-.29.11-1.3.53-.42,1.95s2.37,2.44.5,1.85-3.18-1.35-2.59-3.09a4.53,4.53,0,0,1,3-2.89c1-.34,2.78.63,3.68,1.71s4,1.7,3.75.14-1.22-5.83-1.81-5.75-1.31-.34-1.5-2.07S230.26,315.84,231,313.63Z"/><path class="cls-1" d="M235.17,280.09a30.29,30.29,0,0,0-8.16,4.76c-3.85,1.52-11,4.27-15.18,3.9-3.67-.33-2.12,1.05-6.82.5s-8.09,2.8-11.33,2.41c-2.28-.27-.09,0-4.39,0-3,0-2.93,1.45-2.63,2.35.14.39,2.08.59,4.65.88s5.61,2.67,8,3.91,3.36,4.27,4,5.23,4.44,1.1,7.14.82,3.5-2.06,5-5.65,3.5-3.7,5.92-5.78c.18-.14.38-.33.6-.53,4.28-.88,7.49-1.73,8.31-1.56,2.25.42,4,2.33,6.13,2.19s2.22.2,2.6-.62-.54-.73-2.05-1.82c-4-2.82,2.05-5.56,4.18-3.82s-2.13,2.54.71,3c1.92.27,3.18-2.24,2.54-5.22S240.91,278,235.17,280.09Z"/><path class="cls-1" d="M227.31,348.71c-.18-.31-.65-.55-1.7-.6-2.74-.13-2.05-.57-3.75-1.29s-.74.35-1.73-3.68a9.6,9.6,0,0,0-7.1-7.28,35.87,35.87,0,0,0-7.23-.56c-1.27.24,1.78,1.84,3.3,2s3.84-.65,4.92.89,1.83,2.27,1.76,3.26-.14,2.49-1.41,2.8-.76.7-2.9.94c-1.44.15-2.07.33-3.23-.7s-1.75-2.4-.89-3.49,2.73-2.18,1-2.66-5.05-2.83-6.42-2.14-3.95-.41-5.42.54A27.9,27.9,0,0,1,193,338.4c-1.22.61-1.23,1.26-1.23,1.26s-.43.95.35,1,1.89-.85,3.66-.41,5.78,4.43,6.16,5a9.15,9.15,0,0,1,1.33,2.79.17.17,0,0,1,0,.07l-4.25,0a2.87,2.87,0,0,0-2.49-1.16c-1.54.06-1.68-.84-2.94-2-.55-.5-1.12-2.34-2.17-3.15s-5.9,1.05-6.52,1.49-2.4,1.5-5.29,3.85a8.52,8.52,0,0,1-1.21.87c-3,0-5.54,0-7.43-.08-.12-.06-.26-.11-.38-.18a7.83,7.83,0,0,1-4-4.52c-.59-1.29-.55-4.46-.59-6.22s-.67-1.8-1.78-1.85-.65,2.49-.51,4.42-.84,3.73-.19,6.82c.49,2.37,1.24,5.33,2,5.27h.14a5.11,5.11,0,0,0,4.39,2.3c-5.42.53,48.61.6,53.39.14,3,.3,4.44-3.23,4.1-4.91A1.17,1.17,0,0,0,227.31,348.71Z"/><path class="cls-1" d="M378.42,122.83c-3.83-7.15-18.87-20.2-27.29-25.75-3.22-2.12-7.14-3.58-10.94-5.5-2.55-1.27-4.84-3.06-7.55-4.22-4.53-2-8.21-2.68-11.54-3.86s-6.7-2.93-9.93-3.89c-4.54-1.35-8.79-1.8-13-2.74-1.79-.39-3.7-1.46-5.37-1.77a88.51,88.51,0,0,0-9.78-.92c-2.32-.21-4.59-.84-6.36-.78-6.56.22-20.83-2.53-22.63,6.91.13,2,1.37,5.39,1.27,8.13-.2,4.88-8,7.32-10.5,7.35-7.36.13-13.52-.57-21.68,7.06-7.75,7.24-8.33,23.14-8.49,23.2-.29,1.89-.2,3.07.14,3.7-.21.13-.36.2-.49.16-1.08-.35-.37-3-.37-6.19a35,35,0,0,0-.74-6.49c-.35-2.18,4-13.91,7.71-16.41,1.51-1,2.66-2.09,2.42-2.41-1.43-1.9-8.65-.7-11.57,1.4-1,.71-1.87.55-3.59,2.28-.28.3-1.21,1.37-2.06,2.25-.5.52-1.57,1.51-2,2a13.11,13.11,0,0,1-3.19,2.42s-5.37,3.58-3,2.66c2.87-1.11,4-.56,4.78.57s2.87,6.48,2.87,9.7-1.76,6.13,0,5.41,1-6.15,1-6.15l-.48-6.8s.29-1.73.46-1.3a11.9,11.9,0,0,1,.84,2.34c1.16,4.06.8,15.59-.67,18.3a9.86,9.86,0,0,0-.17,7.68c1.44,2.8-.09,1.66-1,1a35.9,35.9,0,0,1-4.39-3.63c-1.4-1.45-1.74-3.19-1.24-4,1-1.64,1.47-.94,2.61-1.12.59-.07-.36-1.26-2.29-2.65-.19-.16-.87-.12-1.37-.55a4.26,4.26,0,0,0-.66-.61c-.29-.21-1.15-.23-1.45-.6a10.49,10.49,0,0,0-2.12-1.82c-.47-.46,1.5-.25,3.13,0a5.66,5.66,0,0,0,2.85-.15c.45-.28.87-.61.52-.71-2-.56-6.57-1.07-8.29-1.55-2.25-.64-2.76,0-4.81-1.43s-1-6.46-1-6.46l2.92.06,1.75-1.28c.08.18.24.21.59,0A7.3,7.3,0,0,0,193,115a.87.87,0,0,0,.52-.6c1.15-1.33,2.73-3.18,3-3.33s.45-.87.81-1.14.87-.06,1.19-.32a11.86,11.86,0,0,0,.93-.82c.29-.27.56-.55.82-.83a16.93,16.93,0,0,0,3.34-5.13c.48-1.13-.1-2.51,2.33-3.36s2.8-.54,3.4-1.06A5.57,5.57,0,0,0,211,95.81c.24-1.15.14-.67-.54-2.72s-1.15-3-2-3-1.07-2.92-.81-3.78.91-1.7-.12-1.87-2.54,1.75-2.12,0,1.51,0,1.51-1.07,2.94.59,3.68-1.86-.05-6.77-1.27-7.93-2.52-2.74-1.79-3.26,2.33-1.53.9-3c-2.29-2.4-1.13-4.25-2.17-6.49-3.42-7.35-7-7-7.84-7.14s-1.29,1.45.12,3.89.23,2.24.09,2.2L196,58.9c-.82-.26-1.06,1,.46,3.31s3.16,3.51,3.29,4.64.73,1.47-.39,1.47-3.39-.7-3.7-.58c-3.48,1.27.92,7.93-.35,7.85-.44,0-2.56-4.61-3.52-5.57s-.91-2.12-.65-3.67a5.58,5.58,0,0,0-1-3.57c-.32-.6-2.23-2-.17-4.14s3.85-2.27,2.91-2.51-3-1.27-3.52-1.43-1-.24-1,.64a4.81,4.81,0,0,1-.85,3.1c-.81,1-.57,2.2-1.34,2.06a2.9,2.9,0,0,0-1.81.57c-.52.43-.05.13-1.15,1.5-.7.87-1.05,1-.79,1.29s1.19,0,2.84,0,2.07-.43,2.42.93.44,2.34-.4,2.68-3.22,0-4.34,1.39-.58,2.26-1.63,2.37-2.08-.76-2.49.1,0,1.94,0,2.82A2.68,2.68,0,0,1,176.39,76a2.86,2.86,0,0,1-2.18-1.52c-.5-.69-.3-1.33-.71-1.08,0,0-.6.12-.33,1.8s2,2.6,2.16,4.27.34,2.54.33,3.81c0,.82,1,2-.13,3-.38.36-3.74.5-5.73,1.54-1.71.88,2.2,5.61,1.7,6.78a12.53,12.53,0,0,0-1.08,2.77c-.16,1.62.8,1.9,1,3.1.13.69-.32,1.32-.39,1.69a1.1,1.1,0,0,0-.29-.27c-1-.63.05-2.38-1.16-3.31-2.22-1.7-1.1-1.68-.48-4.2A7.43,7.43,0,0,0,167.66,88c-.44-.74-3.28-2.41-5.35-3.44-1.89-2.11-10-1.42-10.7-2.7-1.87-3.67,3.75-10.11,4.65-14,.16-.56.4-2.58.47-2.78l17.07,6.09a1.35,1.35,0,0,0,.85.37c1,0,1.74-.06,2.29-1.34.39-.75-1.83-.79-2.33-.94-3.23-1.39-14.25-5.18-17.31-6.67a5,5,0,0,0-.28-3.36c-.38-1.08-1.3-2.61-4.27-2.69a2.58,2.58,0,0,0-2.44-.87.23.23,0,0,1-.18,0c-.15-.32-.77-.28-1.07-.5a2.63,2.63,0,0,0-2.72-.61.56.56,0,0,0-.05-.08,5.29,5.29,0,0,0-3-1.14,2.84,2.84,0,0,1-.65.05c-.1,0-.13-.08-.21-.12-1-.53-3.51-.06-4.86.36-3.72-1.79-7.49-3.48-8.72-4.08C117.23,44.41,76,27.58,66.79,24a138.48,138.48,0,0,1-20.22-9.84C44,12.59,41.64,9.35,39.51,2.56c-.37-1.18-.1-4.53-3-1C33.38,5.37,29.88,12.45,28.84,21c-.14,1.05-.71,3.5,1.34,2.41,2.87-1.52,8.29-4.25,13.36-3.15,6.5,1.42,27.38,9,43.19,15.52,10.6,4.41,43.53,17.5,47,19.43.41.22.48.34.41.4s-.41,0-.62,0h-.22c-.06.37-7.36-2.43-24.71-3.43a62.26,62.26,0,0,0-11.24-.46c-2.7.15-5.92.76-9.33,1.13-3.74.41-7.77.59-12.19,1.37-2.52.45-6.31.61-9,1.21A45.8,45.8,0,0,0,54.4,60.15c-2.92,1.42-6.32,1.34-9.46,2.55a122.59,122.59,0,0,0-39.47,24c-5.49,5.07-8.56,7.53-.8,6.16,2.29-.42,3.71.14,4.82-1.33,2-2.57,12.24-6.63,9.06.56-1.5,8.32,3.59,4.37,8.45,1.8,1.32-.71,14.13-7.49,15.13-7.34A.74.74,0,0,1,43,87a1.9,1.9,0,0,1-.25,1.29c-1.39,3.11-7.31,9.5-7.61,9.5-.41,2.17,1.76,2.69,4.74,1.17,8.06-1.84,14.62-7.61,23.14-9.67,5.52-1.33,9.2-2.74,10.43-2,.6.33.45,1.87.47,2.28.18,4.45-3.2,13.86-.64,14.59s9.87-11,11.46-13c.66-.85,1.36-1.59,1.89-2.15s1-.18,1.11.31a31,31,0,0,1,.78,7,18.27,18.27,0,0,1-1.1,6.93c-2,5.42,1.73,3,5.26.9a40.18,40.18,0,0,0,7.22-5.41c2.5-2.69,5.51-5.89,5.51-5.89a1.49,1.49,0,0,1,1.32-.73c3.18.8-1.07,17,4.25,17,4.67,0,6.76-9.62,8.64-8.92s5.45,12.56,9.25,13.3a7.82,7.82,0,0,1,.11-4.5c.78,1.18-.71-3.72.48-2.69,7.18,6.07,4.13,7.8,4.4,12.09.44,7.57,5.92,5.63,6.35,6.15,2.45,3.08-.88-4.17,1.69-2,.68.57,6.36,2.05,6.05,3-1.64,5.12,4.15,12.82.48,16.73a16.08,16.08,0,0,0-3.23,5.18,51.16,51.16,0,0,0-10,22.12c1.64,10.09,10.29,21.26,12.47,22.79s2.75.74,2.25-1.38c-.38-1.59.71-2.89-1-5-.65-.78-.93-3.63-1.31-4.58a58,58,0,0,1-2.89-8.68c-.19-1.23-.41-2.21-.53-3.25-.06-.46-.09-.92-.12-1.38a19.35,19.35,0,0,1,.31-4.35,25.94,25.94,0,0,1,.69-3.34,8.65,8.65,0,0,1,.8-1.51c.41-.84.77-1.71,1.23-2.54.25-.43.3-1,.55-1.42.4-.65,1-.77,1.27-1.12.42-.62.08-1.26-.08-1.75,1.18-1.77,2.51-3.81,3.83-5.71,1.23-1.67,2.37-3.2,2.88-3.81a.87.87,0,0,0,.25-.39,8.59,8.59,0,0,1,2.5-2.26,29.33,29.33,0,0,0,3.81-2c.38.18,1.16.07,2.45-.41a31.21,31.21,0,0,0,8.32-5.39l.3-1.12c1.06-1.1,2-2.16,3-3a20.82,20.82,0,0,0,1.7-1.68,5,5,0,0,1,2.94,0l3.5-7.91s1,5.53,1.35,7,2.14,5.27,3.82,5.27-.34-2.9-.34-2.9a20.61,20.61,0,0,1,3.44,2.5c2.09,1.8,5.22,1.8,6.25,4.3s0,2.91,0,2.91-14.15-4.66-19.71-3.6-14.43,3.89-17.53,7.49a5.74,5.74,0,0,0-1.2,2.18,33.48,33.48,0,0,1-2.48,3.64c-.37.46-.47,1.4-.86,1.95s-.22,1.27-.7,2c-1.54,2.41-1.38,4.85-2.95,8.63a49.43,49.43,0,0,0-2.21,5.24,30.76,30.76,0,0,0-.44,5.14,40.93,40.93,0,0,0-.39,4.21,38.65,38.65,0,0,0,1.27,8.39c.8,4.59,2.13,13.53,1.81,19.68,0,.8.3,1.85.24,2.68s-.51,1.38-.57,2.19.39,2.34.33,3.1c-.32,5.6-1.07,9.5-1.07,13,.11,1.66-.34,2.91-.1,4.2a53.41,53.41,0,0,1-13.06,24.85c-4.33,8.92-14.61,11.41-27.66,13.67-2.74,1.39-9.51-3.14-9.15-3.92-5-2.55-9,6.85-5.78,6.85,4.74,2.17,8.61,21.49,14.2,18.21,3.87-2.28,3.19,3.7,7.1,1.42,1.75-.42,2.39.09,3.81-2.57,3.28-5.37,8.41-8.24,11.44-11.6,2.18-2.37,5.95-13,7-12.58,0,7.27-9.13,19.71-13.38,22.11-6.45,6.6-3,9.92-.19,15.9.64,1.38.78,2.68,2,3.82a18.58,18.58,0,0,0,2.4,1.61c2.51,2.14,9.57,2,12,.67s5.19-.48,5.63-1.33c.87-1.69-3.86-8-5.08-9.52s-2.37-1.27-1.77-3.32c1-3.35-1.85-2.75-.13-6.44,1.9-4.13,3.31-10.44,4.8-14.08.11,0,9.82-26,10.07-30.34.48-3.09,3.79-11.09,4.36-8.91-1.46,11.58-5.09,27.64-9.77,43.59,1.11,7.06-3.22,10-3.14,15.39,0,3.38,2.44,2.7,3.23,2.79,4,.46,6.58,3.18,9.35,2.25,3.7-1.05,10.18-5.63,8-5.48-1.63.1,2.1-6.92,2.1-9.62,0-2.47-3.95-9.92-4.78-18.51-.28-3,5.79-7.4,5.75-8.62,0-1.44-5.36.57-6.23-1.3-1.39-3.06-1.26-11.48-.37-15.86.23-4.49,1.44-16.65,1.23-18.36.77-3.43,7.95,5.57,10.4,11,.1-.05.36.78.46,3,0,.71-.16,1.68-.1,2.68s.3,2.37.33,3.78c0,.55,0,1.12,0,1.71s-.2,1.39-.18,2c0,1,.24,1.76.26,2.88v5c0,.82-.25.62-2.41,1.77-1.13.63-2,.57-1.83,1.7.23,1.79,4.09,2.54,4.57,7.58.2,2.08-.26,10.29.68,15,.2,1,.44,2.4.52,2.51.61.82.78,4.06-.08,5.47-.22.36-1.23,5.25-.44,5.21l6.17-.9a7.88,7.88,0,0,0,1.45-.25,5.51,5.51,0,0,0,1.08.06,6,6,0,0,0,3.75-1.78c2-.83,3.8-.67,4.87-1.13,1.45-.63,8.95.29,10.5-.14,6.47-1.79,16.94-2.11,18.78-4a34.86,34.86,0,0,0,3.76-1.28c-.54.1-1.75,0-3.17-4.25a31.46,31.46,0,0,0-7.43-12.47c-3.13-3.07-15.42-17.39-15.42-17.39a43.7,43.7,0,0,0,5.15,2.67,53.14,53.14,0,0,0,11.24,2.3s4.05,6.82,6.88,10.55,9.25,9.56,10.7,11.95c1.59,2.64,1.47,2.94-1,3.84-2,.73-3.68,1.47-4.93,2,3.06-1.26,5.89-2.51,7.19-2.54.9.15,1.67-.24,2.45,0h.59c7,1.3,10,11.83,11.46,11.92h0c3.23,1,4-.77,7.61-2.38,3.25-1.44-4.79-4.66-2.6-10,.8-1.9,3.25-8.76,6-11.46,1.46-1.42,2.34-.73,3.07-1.48,1.05-1.07-.1-3.88-1-4.62-1.59-1.3-5.81-.42-8.55,5.16a2.45,2.45,0,0,1-1.51,1c-.57,0-.74.74-1.48.25s3.3-3.52,2.58-4.31c-2.18-2.37-6.62-2.87-3.56-4.34.93-1.37-.83-3.36-1-4.79-1-6.41-7-8.68-13.88-9.38-.76-.06-.45-1.2-1.44-1a29.7,29.7,0,0,1-3.76.81,16.76,16.76,0,0,0-3.3-.21,18.43,18.43,0,0,1-2,.32c-.73,0-1.32-.18-2-.15-1.07.05-2.22.34-3.2.39a30.29,30.29,0,0,1-6.35-.12c-1.72-.3-1.66.62-5.12.84-12.13-2.43-19.11-6.9-28.48-17.2-6.37-4,1.33.35,1.23-1.16,3.87.92-4.68-2.56-9.44-6.2-1.59-2.52-3.92-1.45-7.92-5.6-.51-.53-1.72-.94-4-2.83a4,4,0,0,0-.14-.57c-.87-2.26-2.81-3.83-2.55-7.12a7.7,7.7,0,0,0-1.62-5.47s2.59-1.85,0-5a14.38,14.38,0,0,1-2.35-4.5c.09-.53.16-1.13.23-1.81.2-1.65-3-3.62-1.86-12.71.14-1,.87-3.91,1.09-5,.17-.91-.66-2.67-.42-3.66.27-1.14,1.62-1.52,2-2.78.42-1.44.69-4.32,2.24-7.05a48,48,0,0,0,3.07-7.2l3.19-5.34s4.65-3.9,9.5-3.9,7-7.76,23.77,2.8c3.34,2.1,2.31,7.38,4.17,8.77a3.65,3.65,0,0,1,1.82,3.13c.43,2.19-1.44,4.47-2.83,5.79-3.09,3-13.95,19.77-9.75,16.82,5.77-4.05,5.17-9,6.55-9.37s6.07-7.4,8.12-8.86c1.31-.9,2.06,2.16,2.75,5.55-.08-2,0-4.06,0-5.47,0-5,2.61-8.67,4-10.8,1.63-2.69,2.21-3.77,8.2-14.24s8.52-11.49,8.52-11.49a7,7,0,0,1,6.17,0c1.09.34,1.38,0,2.8.44s.88,1.41.69,2.83-.63,1.56-.74,2.1a23.84,23.84,0,0,1-6.59,13.25c-4.19,4.32-15.45,14-16.46,15.33s-.63,1.45-.57,2.54a7.73,7.73,0,0,0,2.42,4c.85.61,1.52,1.68,1.28,2.27s-.77.9-2.18-.23c-2.09-1.62-3.53-1.49-3.47,0s-.29,3.2.62,4.59c.59.88,2.79,2.4,4,1.85.64-.31,1.2-.52,1.45-.2s.23.44-.87,1.36c-1.3,1.06-4,.9-6.94-1.14a2.52,2.52,0,0,1-.69-.69c1.24,3.7,1.92,7.08,2.92,9.14a2.83,2.83,0,0,1,.18.5c.21.31.37.55.48.69,5.85,8.14,9.24,7.1,9.24,7.1s4,1.25,5.53,1.75a2.26,2.26,0,0,1,.79.32l.26.15a31,31,0,0,1,3.35,2.72c1,.89.62,1.11,1.91,1.52,1.08.36.39.58,1.5.58,1.8,0,5.09-.4,6.27.06.39.17,1.29-3,4.37-5.12.1-.06,1.41-1.84,1.46-2s-5.83,6.09-10,3.09c-6.23-4.44-6.71-7.91-10-11.35-.24-.24-1.15-1.39-1.38-1.61-.48-.54-.59-.41-1-.9s-.65-.9-.93-1.18c-1.51-1.4-2.59-4.2-3.07-5-.35-.65-.72-1.3-.36-1L225,171c.51.47,2.13,1.1,2.7,1.64.23.22.46.45.71.66l.82.79c4.42,4.17,11.86,3.68,13.1,3.86.22,0-.22-.19,0-.2s2.69,1.36,3,1.33.51-.3.7-.33c.62-.07,1.31.21,1.84,0a5.89,5.89,0,0,0,.8-.37c.48-.28.89,0,1.18-.45,1.06-1.69,1.42.22,1.92-1.17.31-.83.6.13.73-.3a1,1,0,0,1,.63-.6,67.18,67.18,0,0,1-1,8c-.58,3.56-7.36,9.72-7.1,10.56a24.43,24.43,0,0,0,4.64,7.93,37,37,0,0,1,2.57,3.63c1,1.66,2.83,1,4.43-.65a10.9,10.9,0,0,0,1.43-2.59c.16-.33.68-1,1.06-1.6.51-.81,1.21-1.52,1.87-2.6.27-.46.29-1.14.56-1.61s1-1,1.27-1.49a7.78,7.78,0,0,0,.9-2.71c.35-2.7-3.39-4-3.37-4.29.18-1.24-2.85-2.44-2-6.28,1.41-6.46,5.58-8.37,2.55-12.81-.61-.93-.72-2.68-1.21-3.24a6.41,6.41,0,0,0-2.45-1.43c-1.58-.72-3.52,2.4-5.65,2.1a18.6,18.6,0,0,1-9.43-4.7s-10.34-5.64-11-8.55c-.29-1.13-5-4.73-4.09-5.53.63-.52-.54.32.1-.19a10,10,0,0,1,1.38-1c.32-.15.33-.6.57-.35,1.56,1.58,6,9,8.11,10.19,2.8,1.51,3.4,1.6,5.72,4.27s2.53,0,2.64-1.88c.11-1.66,1.8-4.8,1.64-6.79-.29-4.31.09-6.81,1.45-11.84S251,132,249,126.25a10.77,10.77,0,0,1-.14-3.54c0-2.52-2.52-7.41-4.11-8.29-1.24-.73-3.48-2.22-8.09-.55a10.62,10.62,0,0,1-1.87.63c-.26,0-.87.61-1,.59-.38-.1-.28-.45.25-1a12.27,12.27,0,0,1,1.48-1.19c1.14-.79,3.32-1.86,4.66-1.67,1.6.23,2.11-.89.6-1.25a10,10,0,0,0-5-.11,6.31,6.31,0,0,0-2.41,1.28,9.08,9.08,0,0,0-.81.57c-.13.12-.43.65-.57.77s-1.29,1-1.44,1.19a11.8,11.8,0,0,0-1.7,2.17c-1.05,1.43-4.5,3.8-5.56,6.71s-1.83,4.43-1.83,2.63-.18-1.2.59-4.41c3.22-5.42,8.69-11.84,11.51-13.43,5.61-2.3,6.67.48,8.82,1.44,4.41,3.31,8.44,6.67,8.44,14.67,0,2.63,4.64-.33,5.23-1.17,1.58-2.25,4.37-4.91,4.67-4.38a17.06,17.06,0,0,1,2.68,3.44c.8,1.26,4.48,6.35,5.46,7.51,2.62,3,3.79,2.84,3.07-1-.87-4.47,2.2-12.61,2.64-14.51.56-.1,7.68,6,9,7.31,4.57,4.49,6.51,5.64,7.84,4.68s.67-3.11.49-4.73c-.49-4.19-1.54-10.48-.71-11.17s5.76,3.11,8,6.18c1.44,2,8.41,9.38,11.38,8.86,1.18-.21-.91-2.12-1.61-5.51s-1.57-10.82.76-10.62c4,.38,5.51,2.58,9.91,5.75,2.09,1.5,6.27,5.64,12.73,8.53,5.78,2.55,6.71,1.62,5.66-.38-.57-1.08-3.75-6.31-4.35-8.31s.17-3.2,1.45-2.16c5.53,4.49,15.91,9.15,17.25,9.49,5.22,1.32,7.8,2.45,8.68,1.12,1.24-1.82-.62-4.83-.79-6.88-.08-1,.08-1.68.62-1.26.91.73,1.89,1.64,2.87,2.57a27.83,27.83,0,0,0,13.42,7.34C379,124.64,379,123.86,378.42,122.83ZM166.5,99.3a6.89,6.89,0,0,1-.65-1.06C166.05,98.58,166.28,98.94,166.5,99.3ZM149.62,56.85c-.3.06-.63.16-1,.24a.33.33,0,0,0,.15-.24.51.51,0,0,0,0-.22C149.07,56.69,149.35,56.77,149.62,56.85Zm-4.56-.08a.79.79,0,0,0,.13.14,6.21,6.21,0,0,1-.59-.26A1.29,1.29,0,0,1,145.06,56.77Zm1.73.45a1.09,1.09,0,0,0,.61.23l-.59.19c-.35-.16-.68-.31-1-.44A4.72,4.72,0,0,1,146.79,57.22Zm35.59,58.18a3.51,3.51,0,0,0,0-.36c-1.39-.16-1.43.93-3.14,2.58-.15.14-.34.28-.5.43a8.36,8.36,0,0,1-1.85,1.22c-2.23.72-6.67-.18-11.36,1-2-.21-4.13-.1-5.46,1a1.2,1.2,0,0,0-.44,1.61c-1.81.74-4.51,1.2-5.51.12a4,4,0,0,1,.45-.93c3.36-5.15,3.89-3.07,2.63-9.58a28.49,28.49,0,0,1-.54-4.92c-.37-.51-1.17-1.39-3.25-.84s-4.24.37-9.53-.37a33.11,33.11,0,0,1-5.08-1.33c-.47-.12-1.45-.18-1.89-.3s-.84-.41-1.35-.57c-.23-.08-.67-.11-.91-.18-2-.66-3.5-1.57-5.15-2.17-1.28-.48-2.74-.68-3.73-1a19.18,19.18,0,0,1-3.61-1.33c-.84-.83-.62-1-.46-3.33,1-15.66,10.4-23.21,11-24.39,2.42-4.55,4.81-6.66,6.14-8.68s1.2-4.12,1.59-4.5c.87.09,2.13.91,2.81,1,1.38.19,1.12.61,2.54.25a7.69,7.69,0,0,1,2.24.37,3.27,3.27,0,0,0,.59-.75c.22-.37.44-1.45.91-1.54a.84.84,0,0,1,1,.9,6.92,6.92,0,0,1-.17,2,4.79,4.79,0,0,1-.81,1.29s-.05,0-.06,0l-.16.12-.19.18s0,0,0,0c-.8.85-1.38,2.17-3.27,2.38-4.33.52-7.28,12.65-8.88,16.9-.84,2.29-3.17,5.8-3.09,8.73.14.51,1.15.83,2.35,1.06a27.5,27.5,0,0,0,5.45.49c1,0,2.14-.11,3.28-.12.77,0,1.49.13,2.3.12s1.94-.21,2.91-.24l5.11-.12a12.07,12.07,0,0,0,3.32-.67,13.94,13.94,0,0,1,5.18-.55,7,7,0,0,1-.11,2.48l-.26.2c-.73.57-2.51,1.56-2.8,5.13s-.17,2.5,1,4.15c1.65,2.32.85.71,2.43.22s5,2.62,5.49,1c.16-.43-.11-1-.57-1.56a2.75,2.75,0,0,0,1.3.57c.25,0,.72-.07.83-.27.07.12.31.17.84.12,1.13-.1,1.81-2.14,1.61-4.38a6,6,0,0,1-.05-2.13,10.17,10.17,0,0,1,.77-4.7c.77-1.45,3.47-1.25,3.47-3.37s.12-6.46.66-6.18,1.17,2.24,1.17,4.8-.25,2.89.62,3.71a8.24,8.24,0,0,0,2.19,1.44s1.6.5,1-2.21-2.05-2.84-1.44-4.77,1.32-4.22,4-1.64c1.7,1.62,1,.93,2.34,3.46.59,1.12,1.35,2.2.83,4-.29,1-1,1.27-1.26,3.34s-.55,2.5,1.37,3,2.44.69,4.17-.69,2.89-2.37,3.53-2.13,1.78.3,1.31,1.44-.94.37-1.34,1.36c-.23.58-1.08,2.27.12,2.27s.34,1.42,1,1.81.83.44-.06,2.09-.28.82-1.37,1.93a26.66,26.66,0,0,0-4.12,7c-1.31-.1-3.48,3.07-5.43,2.52C185.68,114,184,114.52,182.38,115.4Zm44.76,44.81c7.58,6.62,10.74,6,12.3,6s6.55,1.51,6.47,2.35-1.84-.36-2.31-.35c-10,.5-15.5-3.57-17.93-5s-3.91-7.76-6.37-9.66c.67-.69.95-.95,1.49-1.43C222.26,152.87,226.27,159.45,227.14,160.21Z"/></g></g></svg>